<?xml version="1.0" encoding="UTF-8" standalone="no"?>
<svg
   xmlns:dc="http://purl.org/dc/elements/1.1/"
   xmlns:cc="http://creativecommons.org/ns#"
   xmlns:rdf="http://www.w3.org/1999/02/22-rdf-syntax-ns#"
   xmlns:svg="http://www.w3.org/2000/svg"
   xmlns="http://www.w3.org/2000/svg"
   xmlns:sodipodi="http://sodipodi.sourceforge.net/DTD/sodipodi-0.dtd"
   xmlns:inkscape="http://www.inkscape.org/namespaces/inkscape"
   version="1.2"
   height="209.973mm"
   viewBox="0 0 3507 2480"
   width="296.926mm"
   id="svg144"
   sodipodi:docname="BFC.svg"
   inkscape:version="1.0.2 (e86c870879, 2021-01-15, custom)">
  <sodipodi:namedview
     pagecolor="#ffffff"
     bordercolor="#666666"
     borderopacity="1"
     objecttolerance="10"
     gridtolerance="10"
     guidetolerance="10"
     inkscape:pageopacity="0"
     inkscape:pageshadow="2"
     inkscape:window-width="1605"
     inkscape:window-height="1027"
     id="namedview146"
     showgrid="false"
     inkscape:zoom="0.92616071"
     inkscape:cx="561.11999"
     inkscape:cy="396.79938"
     inkscape:window-x="67"
     inkscape:window-y="16"
     inkscape:window-maximized="1"
     inkscape:current-layer="svg144" />
  <defs
     id="defs2" />
  <rect
     x="0"
     y="0"
     height="2479.3826"
     width="3507.1265"
     id="rect36"
     style="font-style:normal;font-weight:400;font-size:34.375px;font-family:'MS Shell Dlg 2';fill:#000000;fill-opacity:0;fill-rule:evenodd;stroke:none;stroke-width:0.999751;stroke-linecap:square;stroke-linejoin:bevel" />
  <path
     d="m 1030.7133,638.7849 17.4356,24.63187 69.6027,-3.46614 -35.3412,-29.66661 7.4282,-117.75967 -36.8908,-40.04203 -15.9961,-88.36099 50.6474,23.09825 57.2658,-9.20271 -8.4879,38.24147 25.0137,47.19125 31.9921,-8.57186 114.3815,33.3037 35.4112,-8.65184 57.5756,-25.74659 -43.5791,-20.24096 21.8845,-47.85208 162.5995,-60.21101 57.1958,-59.8161 21.4646,8.73183 -22.4144,-25.35569 3.2092,-19.74308 13.5566,2.51237 -13.4166,-11.52812 5.1287,-34.25647 8.4379,6.84529 3.869,0.73682 -13.3366,-16.54088 2.1594,-74.09855 151.6023,-52.295271 8.068,59.293531 30.7923,31.28721 17.3757,8.042 38.5104,-24.27496 21.5846,65.0628 50.7774,7.2272 16.7358,47.99104 49.5276,-14.27944 29.5127,20.80582 -12.3169,34.38343 16.7758,15.03626 -14.9563,13.59561 10.0875,15.91704 79.0903,-11.59911 19.6151,-43.27322 12.047,7.28518 -16.126,42.23448 16.226,14.29944 -4.7388,29.19873 67.0333,22.11249 33.9415,48.26198 48.198,-17.94353 44.369,26.95429 31.4021,-17.60462 49.3678,18.25645 34.9013,64.80087 29.4726,-16.20497 22.3844,26.29245 38.8204,-2.66633 23.5941,-18.4664 32.7019,30.39043 97.0458,13.46464 -57.5657,86.51646 -35.5011,131.25231 9.5476,36.13799 -14.3964,69.01881 13.8665,28.86981 -30.9123,37.56665 -68.6029,-11.60611 -15.6261,35.88606 29.9825,2.99625 -56.4959,75.85608 -43.8991,29.3127 4.5389,38.2105 -55.4462,50.7474 -6.5584,40.18 18.4355,11.807 -34.2515,59.0653 57.1557,-25.2137 0.31,-35.0913 85.0488,-10.3474 1.7196,62.8844 17.4256,2.7393 -3.3192,18.0055 31.0623,30.2225 -37.7206,23.5141 -0.4799,27.5032 34.3915,19.4851 1.4896,33.2817 33.5416,23.1942 -16.5958,48.318 -77.1908,30.8323 23.994,47.7281 48.6379,18.4354 11.5071,34.2115 -20.125,1.7996 -17.3456,37.6606 30.8823,70.9223 64.3739,26.3235 56.6459,-17.5257 6.8383,26.4934 -35.2112,49.2778 -0.6398,31.0722 -57.8256,26.8833 -2.0695,26.9133 -31.4322,2.4794 -17.8855,33.2617 -19.5652,-0.9097 -27.793,36.3709 20.5848,1.7496 -8.038,24.8938 -46.7883,7.728 -3.979,14.1665 -29.3527,-5.6286 -8.7078,22.3544 -42.0796,-22.3944 5.1787,13.7566 -21.0247,5.3587 -27.0333,-31.4022 -62.7843,-6.3284 -6.3485,-36.291 -46.6284,10.2874 -35.3511,-31.2222 -0.34,30.0525 -34.9713,-2.6393 -20.8348,-24.7239 -101.0448,-22.8543 -86.0086,68.8629 -40.23,7.6181 -32.4319,37.8206 -15.0462,95.4662 27.4831,66.3934 -41.6596,-11.4171 -50.1275,18.9753 -0.4699,15.726 -75.9611,-24.6138 -44.7488,21.7046 -14.2165,-26.1135 -37.3607,-10.2575 1.5696,-30.9523 -44.229,-9.5276 -10.0375,12.107 -14.5363,-28.9928 -34.2815,2.0795 -16.096,-20.275 -67.0333,-19.895 -7.0482,41.9995 -57.4757,-10.0575 -12.6969,11.8071 -20.8248,-16.056 -34.4814,11.7071 -53.5567,-43.0293 -46.9883,14.9863 -31.4721,-47.7481 -91.9171,-23.7841 -0.08,-18.3454 -16.5359,21.4346 -15.4261,-5.2887 13.4366,-50.5474 -40.81282,-1.9895 -31.38319,-31.2922 33.71661,-11.897 32.081,-51.5772 58.7054,-248.1482 7.898,4.6689 25.7636,-0.7398 -26.9333,-32.8119 -18.8353,34.4215 42.2895,-228.2532 47.0283,55.5262 17.4056,66.2835 19.2552,20.025 -34.9613,-113.7317 -71.5421,-57.4857 -0.7799,-25.9135 19.1753,-4.3589 4.5688,-49.3478 11.8071,0.5599 -30.4724,-39.6201 22.4344,-34.0515 -29.5327,1.1697 -85.5686,-55.6162 -51.01733,-83.8891 30.64636,-50.0175 -43.30721,-28.4729 15.20021,-32.6939 -62.79936,-9.82955 -0.50487,-21.04576 21.79857,-8.35392 -10.08349,-19.81506 13.36667,0.26993 -35.11425,-4.8018 12.78082,-10.60136 -9.07474,-5.2067 -35.44518,17.51363 -14.56637,-18.15947 30.39743,5.9925 7.79006,-11.48114 0.73682,-11.45914 -5.30668,10.69333 -11.92803,-13.85854 -17.36867,16.28494 -13.02876,-21.49165 6.4104,25.62062 -32.39093,-13.10873 -2.78231,30.67336 -10.35542,-42.61339 15.93603,-25.79358 -16.25195,24.99078 -23.35618,-12.01101 13.17272,0.56286 -13.2417,-5.97851 10.0385,-9.15072 4.48088,-6.66934 -1.13772,-3.71207 2.65334,-0.8348 -3.2162,0.22895 0.78181,5.27768 -10.09949,6.85829 -5.74956,-22.0655 3.64209,24.17298 -16.8678,7.82605 -10.53338,-17.70659 2.0165,-10.21446 -3.25419,-5.9925 3.2322,-5.01276 -2.78031,-4.08198 -1.38266,25.18973 -33.26971,-24.24596 -18.55138,12.58486 -12.96777,-29.01877 -26.37743,7.93902 6.56237,-16.78482 -6.30343,-3.16321 2.81729,-4.43889 -0.46088,-2.4284 -2.4034,-1.08573 -0.094,-2.04849 -15.35617,44.08702 -31.38119,-2.14147 -13.58861,-61.17876 -41.28672,-4.18995 68.242,-3.74807 11.11423,-17.21471 -29.32869,-23.62612 -16.66485,15.91704 -10.06349,-28.71785 17.6446,-13.84155 -1.94152,14.19746 43.81109,1.17771 -3.34616,5.07273 3.23919,4.13497 23.71909,12.23196 4.21595,-8.87079 -29.51565,-8.22895 15.98602,-3.15422 -24.21797,-7.15822 3.37916,-4.43389 6.60236,-1.64059 3.08923,-3.69008 -33.03877,5.15071 9.48463,-12.26094 16.20697,-7.29619 6.23844,-4.44289 1.6096,-2.12847 -58.04654,21.14473 -29.03477,-8.70583 6.08949,-38.60438 44.41793,-3.49613 -16.34193,-8.4389 21.74659,3.6101 -13.81656,-10.51738 4.91977,-6.47939 79.93909,-0.68582 12.69184,-13.21671 3.05424,0.96776 -1.31167,12.09398 3.09923,1.13672 -1.75857,5.76956 0.029,7.28519 1.71557,4.28093 4.79081,-17.6556 4.87678,1.44464 -2.66234,2.96926 4.50988,13.79557 3.38116,0.3719 5.18371,-26.44141 40.11801,13.82755 9.98251,-37.51965 51.81709,-6.62235 3.2192,8.57386 -6.48638,10.64935 2.63934,1.5956 26.03852,-22.72034 -10.68834,29.76759 19.36118,-13.6586 -6.25545,8.53487 18.57138,9.03275 -3.40415,7.92803 17.53563,17.80756 0.18695,14.58637 22.03951,27.6991 62.04055,-44.34495 -4.20995,16.40091 15.47514,-5.31067 4.21096,18.35043 27.91609,-14.10849 6.7283,36.21398 -3.1192,-39.24323 24.4339,-10.19646"
     fill-rule="evenodd"
     vector-effect="none"
     id="path42"
     style="font-style:normal;font-weight:400;font-size:34.375px;font-family:'MS Shell Dlg 2';fill:#ffffff;stroke:#978889;stroke-width:11.3358;stroke-linecap:square;stroke-linejoin:bevel;stroke-opacity:1" />
  <path
     d="m 1638.9818,2205.8706 10.1075,1.9895 -4.109,-11.2472 -4.9088,3.6691 -1.0897,5.5886"
     fill-rule="evenodd"
     vector-effect="none"
     id="path44"
     style="font-style:normal;font-weight:400;font-size:34.375px;font-family:'MS Shell Dlg 2';fill:none;stroke:#978889;stroke-width:11.3358;stroke-linecap:square;stroke-linejoin:bevel;stroke-opacity:1" />
  <path
     d="m 2194.7934,1951.5639 10.8673,16.9958 26.3234,-16.8958 -38.9903,-21.5246 1.7996,21.4246"
     fill-rule="evenodd"
     vector-effect="none"
     id="path46"
     style="font-style:normal;font-weight:400;font-size:34.375px;font-family:'MS Shell Dlg 2';fill:none;stroke:#978889;stroke-width:11.3358;stroke-linecap:square;stroke-linejoin:bevel;stroke-opacity:1" />
  <path
     d="m 2545.2851,2053.2206 4.3489,-26.5334 72.1621,-43.6691 32.7418,11.0172 1.3997,-78.9703 22.3244,0.1 34.2815,211.5473 -22.5344,43.6591 1.1197,74.0716 -17.9855,15.966 15.6661,0.6998 -23.4442,57.3058 -83.4192,-40.7599 20.9448,-34.3614 -48.228,-9.0478 23.924,-39.6901 -35.7811,2.1495 -4.5988,-16.306 27.1732,-23.7341 -36.5409,-21.3446 -4.9088,-21.9446 27.2932,-9.4176 -28.7928,-23.7241 22.8543,-27.0133"
     fill-rule="evenodd"
     vector-effect="none"
     id="path48"
     style="font-style:normal;font-weight:400;font-size:34.375px;font-family:'MS Shell Dlg 2';fill:#ffffff;stroke:#978889;stroke-width:11.3358;stroke-linecap:square;stroke-linejoin:bevel;stroke-opacity:1" />
  <path
     d="m 1073.5526,1306.6346 26.7334,8.2979 -1.0298,44.9788 -24.9438,-38.5904 -0.7598,-14.6863"
     fill-rule="evenodd"
     vector-effect="none"
     id="path50"
     style="font-style:normal;font-weight:400;font-size:34.375px;font-family:'MS Shell Dlg 2';fill:none;stroke:#978889;stroke-width:11.3358;stroke-linecap:square;stroke-linejoin:bevel;stroke-opacity:1" />
  <path
     d="m 1070.6233,1262.4756 -17.9655,-4.249 -4.5688,-10.8273 51.5971,23.0443 -29.0628,-7.968"
     fill-rule="evenodd"
     vector-effect="none"
     id="path52"
     style="font-style:normal;font-weight:400;font-size:34.375px;font-family:'MS Shell Dlg 2';fill:none;stroke:#978889;stroke-width:11.3358;stroke-linecap:square;stroke-linejoin:bevel;stroke-opacity:1" />
  <path
     d="m 795.53286,953.40054 16.92179,13.94553 -6.38841,7.6441 -25.32869,-10.4534 1.25069,-18.4684 13.54462,7.33217"
     fill-rule="evenodd"
     vector-effect="none"
     id="path54"
     style="font-style:normal;font-weight:400;font-size:34.375px;font-family:'MS Shell Dlg 2';fill:none;stroke:#978889;stroke-width:11.3358;stroke-linecap:square;stroke-linejoin:bevel;stroke-opacity:1" />
  <path
     d="m 947.50901,1063.1452 -13.06974,-16.096 12.80981,2.9493 11.03125,31.1222 -10.77132,-17.9755"
     fill-rule="evenodd"
     vector-effect="none"
     id="path56"
     style="font-style:normal;font-weight:400;font-size:34.375px;font-family:'MS Shell Dlg 2';fill:none;stroke:#978889;stroke-width:11.3358;stroke-linecap:square;stroke-linejoin:bevel;stroke-opacity:1" />
  <path
     d="m 2420.0972,2057.2176 -7.6381,7.8281 -8.1579,-3.8391 14.4264,-6.9182 1.3696,2.9292"
     fill-rule="evenodd"
     vector-effect="none"
     id="path58"
     style="font-style:normal;font-weight:400;font-size:34.375px;font-family:'MS Shell Dlg 2';fill:none;stroke:#978889;stroke-width:11.3358;stroke-linecap:square;stroke-linejoin:bevel;stroke-opacity:1" />
  <path
     d="m 497.18417,658.13008 7.05624,-9.37366 6.24145,5.65359 -12.01101,5.38066 -1.28668,-1.66059"
     fill-rule="evenodd"
     vector-effect="none"
     id="path60"
     style="font-style:normal;font-weight:400;font-size:34.375px;font-family:'MS Shell Dlg 2';fill:none;stroke:#978889;stroke-width:11.3358;stroke-linecap:square;stroke-linejoin:bevel;stroke-opacity:1" />
  <path
     d="m 931.02612,1127.6092 -15.32319,-0.9098 -2.64634,-7.0083 8.69884,0.21 9.27069,7.7081"
     fill-rule="evenodd"
     vector-effect="none"
     id="path62"
     style="font-style:normal;font-weight:400;font-size:34.375px;font-family:'MS Shell Dlg 2';fill:none;stroke:#978889;stroke-width:11.3358;stroke-linecap:square;stroke-linejoin:bevel;stroke-opacity:1" />
  <path
     d="m 2453.5589,2053.8485 6.8783,-6.8183 6.2284,-1.4697 -6.5483,8.9678 -6.5584,-0.6798"
     fill-rule="evenodd"
     vector-effect="none"
     id="path64"
     style="font-style:normal;font-weight:400;font-size:34.375px;font-family:'MS Shell Dlg 2';fill:none;stroke:#978889;stroke-width:11.3358;stroke-linecap:square;stroke-linejoin:bevel;stroke-opacity:1" />
  <path
     d="m 754.30313,884.81363 -7.07424,-1.33767 -4.21595,-5.93852 13.78057,3.27018 -2.49038,4.00601"
     fill-rule="evenodd"
     vector-effect="none"
     id="path66"
     style="font-style:normal;font-weight:400;font-size:34.375px;font-family:'MS Shell Dlg 2';fill:none;stroke:#978889;stroke-width:11.3358;stroke-linecap:square;stroke-linejoin:bevel;stroke-opacity:1" />
  <path
     d="m 850.66713,904.33277 1.04374,-4.00601 2.99625,-3.22319 -4.46288,11.42915 0.42289,-4.19995"
     fill-rule="evenodd"
     vector-effect="none"
     id="path68"
     style="font-style:normal;font-weight:400;font-size:34.375px;font-family:'MS Shell Dlg 2';fill:none;stroke:#978889;stroke-width:11.3358;stroke-linecap:square;stroke-linejoin:bevel;stroke-opacity:1" />
  <path
     d="m 829.99528,950.59624 -2.03049,-0.44989 -2.91628,-4.3779 8.8568,2.56836 -3.91003,2.25943"
     fill-rule="evenodd"
     vector-effect="none"
     id="path70"
     style="font-style:normal;font-weight:400;font-size:34.375px;font-family:'MS Shell Dlg 2';fill:none;stroke:#978889;stroke-width:11.3358;stroke-linecap:square;stroke-linejoin:bevel;stroke-opacity:1" />
  <path
     d="m 2443.3714,2060.0369 0.9698,-3.819 6.8783,-0.6499 -4.009,5.3487 -3.8391,-0.8798"
     fill-rule="evenodd"
     vector-effect="none"
     id="path72"
     style="font-style:normal;font-weight:400;font-size:34.375px;font-family:'MS Shell Dlg 2';fill:none;stroke:#978889;stroke-width:11.3358;stroke-linecap:square;stroke-linejoin:bevel;stroke-opacity:1" />
  <path
     d="m 2248.0301,1998.1623 -3.4691,3.3292 -0.8198,0.17 1.4496,-4.9388 4.7788,-1.3197 -1.9395,2.7593"
     fill-rule="evenodd"
     vector-effect="none"
     id="path74"
     style="font-style:normal;font-weight:400;font-size:34.375px;font-family:'MS Shell Dlg 2';fill:none;stroke:#978889;stroke-width:11.3358;stroke-linecap:square;stroke-linejoin:bevel;stroke-opacity:1" />
  <path
     d="m 684.52551,601.63016 -2.90927,0.28493 -2.12648,-1.87954 5.58961,-0.88278 2.24344,3.81905 -2.7973,-1.34166"
     fill-rule="evenodd"
     vector-effect="none"
     id="path76"
     style="font-style:normal;font-weight:400;font-size:34.375px;font-family:'MS Shell Dlg 2';fill:none;stroke:#978889;stroke-width:11.3358;stroke-linecap:square;stroke-linejoin:bevel;stroke-opacity:1" />
  <path
     d="m 848.90657,591.48868 0.19095,-5.08873 4.40291,-1.37966 -2.25744,6.21046 -2.33642,0.25793"
     fill-rule="evenodd"
     vector-effect="none"
     id="path78"
     style="font-style:normal;font-weight:400;font-size:34.375px;font-family:'MS Shell Dlg 2';fill:none;stroke:#978889;stroke-width:11.3358;stroke-linecap:square;stroke-linejoin:bevel;stroke-opacity:1" />
  <path
     d="m 858.96706,903.25303 0.28993,-2.07648 3.6301,-1.67658 -4.05999,5.11972 0.13996,-1.36666"
     fill-rule="evenodd"
     vector-effect="none"
     id="path80"
     style="font-style:normal;font-weight:400;font-size:34.375px;font-family:'MS Shell Dlg 2';fill:none;stroke:#978889;stroke-width:11.3358;stroke-linecap:square;stroke-linejoin:bevel;stroke-opacity:1" />
  <path
     d="m 1083.2202,1659.5167 -2.4994,-0.27 -0.7898,4.129 0.01,-3.6791 2.2195,-1.6795 1.0597,1.4996"
     fill-rule="evenodd"
     vector-effect="none"
     id="path82"
     style="font-style:normal;font-weight:400;font-size:34.375px;font-family:'MS Shell Dlg 2';fill:none;stroke:#978889;stroke-width:11.3358;stroke-linecap:square;stroke-linejoin:bevel;stroke-opacity:1" />
  <path
     d="m 1110.8933,1308.5041 1.0298,-2.9593 3.1492,1.4197 -3.8091,2.5893 -0.3699,-1.0497"
     fill-rule="evenodd"
     vector-effect="none"
     id="path84"
     style="font-style:normal;font-weight:400;font-size:34.375px;font-family:'MS Shell Dlg 2';fill:none;stroke:#978889;stroke-width:11.3358;stroke-linecap:square;stroke-linejoin:bevel;stroke-opacity:1" />
  <path
     d="m 844.09577,961.74347 1.71157,-1.17771 -4.03499,3.79305 -0.25894,-3.00925 2.58236,0.39391"
     fill-rule="evenodd"
     vector-effect="none"
     id="path86"
     style="font-style:normal;font-weight:400;font-size:34.375px;font-family:'MS Shell Dlg 2';fill:none;stroke:#978889;stroke-width:11.3358;stroke-linecap:square;stroke-linejoin:bevel;stroke-opacity:1" />
  <path
     d="m 2558.7327,1926.2003 -2.6593,-1.6496 6.6883,0.9597 -0.6298,0.9498 -3.3992,-0.2599"
     fill-rule="evenodd"
     vector-effect="none"
     id="path88"
     style="font-style:normal;font-weight:400;font-size:34.375px;font-family:'MS Shell Dlg 2';fill:none;stroke:#978889;stroke-width:11.3358;stroke-linecap:square;stroke-linejoin:bevel;stroke-opacity:1" />
  <path
     d="m 528.81229,761.53633 -1.95251,-0.66084 2.76231,0.64584 1.06374,2.05449 -1.87354,-2.03949"
     fill-rule="evenodd"
     vector-effect="none"
     id="path90"
     style="font-style:normal;font-weight:400;font-size:34.375px;font-family:'MS Shell Dlg 2';fill:none;stroke:#978889;stroke-width:11.3358;stroke-linecap:square;stroke-linejoin:bevel;stroke-opacity:1" />
  <path
     d="m 1118.8913,1645.6801 1.3897,-2.1994 1.7795,2.3494 -2.8892,0.4999 -0.28,-0.6499"
     fill-rule="evenodd"
     vector-effect="none"
     id="path92"
     style="font-style:normal;font-weight:400;font-size:34.375px;font-family:'MS Shell Dlg 2';fill:none;stroke:#978889;stroke-width:11.3358;stroke-linecap:square;stroke-linejoin:bevel;stroke-opacity:1" />
  <path
     d="m 635.01684,814.85105 1.53962,-0.14896 0.26793,3.92902 -2.18645,-3.38816 0.3789,-0.3919"
     fill-rule="evenodd"
     vector-effect="none"
     id="path94"
     style="font-style:normal;font-weight:400;font-size:34.375px;font-family:'MS Shell Dlg 2';fill:none;stroke:#978889;stroke-width:11.3358;stroke-linecap:square;stroke-linejoin:bevel;stroke-opacity:1" />
  <path
     d="m 754.64805,593.19626 0.41789,-1.08873 3.34817,0.12697 -1.69158,2.04049 -2.07448,-1.07873"
     fill-rule="evenodd"
     vector-effect="none"
     id="path96"
     style="font-style:normal;font-weight:400;font-size:34.375px;font-family:'MS Shell Dlg 2';fill:none;stroke:#978889;stroke-width:11.3358;stroke-linecap:square;stroke-linejoin:bevel;stroke-opacity:1" />
  <path
     d="m 2997.4235,2430.7846 0.7098,-1.8296 2.2994,1.4197 -1.2297,1.0997 -1.7795,-0.6898"
     fill-rule="evenodd"
     vector-effect="none"
     id="path98"
     style="font-style:normal;font-weight:400;font-size:34.375px;font-family:'MS Shell Dlg 2';fill:none;stroke:#978889;stroke-width:11.3358;stroke-linecap:square;stroke-linejoin:bevel;stroke-opacity:1" />
  <path
     d="m 2334.1187,2043.481 2.4593,0.8298 -1.9995,1.9596 -0.5098,-1.4097 0.05,-1.3797"
     fill-rule="evenodd"
     vector-effect="none"
     id="path100"
     style="font-style:normal;font-weight:400;font-size:34.375px;font-family:'MS Shell Dlg 2';fill:none;stroke:#978889;stroke-width:11.3358;stroke-linecap:square;stroke-linejoin:bevel;stroke-opacity:1" />
  <path
     d="m 2263.1463,2023.1061 -3.2092,-0.9197 -0.2099,-0.38 4.7488,0.9998 -1.3297,0.2999"
     fill-rule="evenodd"
     vector-effect="none"
     id="path102"
     style="font-style:normal;font-weight:400;font-size:34.375px;font-family:'MS Shell Dlg 2';fill:none;stroke:#978889;stroke-width:11.3358;stroke-linecap:square;stroke-linejoin:bevel;stroke-opacity:1" />
  <path
     d="m 1120.311,1322.6406 1.2697,-1.0698 0.8397,1.9696 -1.4996,0.4498 -0.6098,-1.3496"
     fill-rule="evenodd"
     vector-effect="none"
     id="path104"
     style="font-style:normal;font-weight:400;font-size:34.375px;font-family:'MS Shell Dlg 2';fill:none;stroke:#978889;stroke-width:11.3358;stroke-linecap:square;stroke-linejoin:bevel;stroke-opacity:1" />
  <path
     d="m 519.87752,672.75844 0.004,-1.14671 0.90577,-0.98376 1.03774,2.11548 -1.94751,0.015"
     fill-rule="evenodd"
     vector-effect="none"
     id="path106"
     style="font-style:normal;font-weight:400;font-size:34.375px;font-family:'MS Shell Dlg 2';fill:none;stroke:#978889;stroke-width:11.3358;stroke-linecap:square;stroke-linejoin:bevel;stroke-opacity:1" />
  <path
     d="m 531.38765,763.53783 0.74282,0.004 0.13396,0.10298 -0.41389,0.3849 -0.46289,-0.49188"
     fill-rule="evenodd"
     vector-effect="none"
     id="path108"
     style="font-style:normal;font-weight:400;font-size:34.375px;font-family:'MS Shell Dlg 2';fill:none;stroke:#978889;stroke-width:11.3358;stroke-linecap:square;stroke-linejoin:bevel;stroke-opacity:1" />
  <path
     d="m 1090.6784,657.35128 0.2199,0.36691 -0.3899,0.10897 -0.19,-0.35791 0.36,-0.11797"
     fill-rule="evenodd"
     vector-effect="none"
     id="path110"
     style="font-style:normal;font-weight:400;font-size:34.375px;font-family:'MS Shell Dlg 2';fill:none;stroke:#978889;stroke-width:11.3358;stroke-linecap:square;stroke-linejoin:bevel;stroke-opacity:1" />
  <path
     d="m 2232.0841,916.96462 47.2082,-10.60636 -0.7898,-33.74859 71.1123,-52.80585 13.1567,22.25446 30.4624,-7.99701 15.3962,17.59362 20.7948,-15.22121 70.3125,46.04753 0.13,34.9333 23.974,18.01451 -26.4734,8.87879 -15.6261,35.88606 29.9825,2.99625 -56.4959,75.85608 -43.8991,29.3127 4.5389,38.2105 -55.4462,50.7474 -3.0692,33.9215 -35.2412,44.7889 -24.8139,2.0195 -14.8263,-20.095 -28.4129,20.4349 -48.268,-58.7054 -43.8091,-0.5898 -26.1635,84.3389 -15.5661,-30.7223 -45.6286,0.7798 -24.294,36.5609 -50.3674,-2.5394 -17.0758,-28.3329 19.2852,-10.6674 -1.0697,-33.3616 -44.5489,-18.7154 -19.945,-52.267 -28.6129,25.0438 -4.009,-14.9263 -39.0503,8.4379 -26.8333,-20.165 4.6988,-66.5834 -38.5704,-127.39026 21.9946,-6.03249 -20.0051,-47.57815 27.8931,-6.07249 -2.2494,-29.26871 19.6251,-16.40492 -32.122,-49.16575 18.9452,-47.08427 74.0516,-2.35942 20.8248,26.8993 -7.898,17.51364 28.2629,5.05574 26.2535,59.16227 147.3333,-22.4954 35.1413,45.70062 -12.4269,10.85929 9.0777,22.35544 34.9713,0.28693 13.6266,25.43966 24.5539,-18.42841"
     fill-rule="evenodd"
     vector-effect="none"
     id="path116"
     style="font-style:normal;font-weight:400;font-size:34.375px;font-family:'MS Shell Dlg 2';fill:#969696;fill-opacity:1;stroke:#f7f7f7;stroke-width:3.07011;stroke-linecap:square;stroke-linejoin:bevel;stroke-opacity:1" />
  <metadata
     id="metadata142">
    <rdf:RDF>
      <rdf:Description
         dc:format="image/svg+xml"
         dc:title=""
         dc:date="2021-12-01T12:38:09"
         dc:identifier=""
         dc:description="">
        <dc:creator>
          <rdf:Bag>
            <rdf:li>Pierre-Stephane LEBRE</rdf:li>
          </rdf:Bag>
        </dc:creator>
        <dc:publisher>
          <rdf:Bag>
            <rdf:li>QGIS 3.22.1-Białowieża</rdf:li>
          </rdf:Bag>
        </dc:publisher>
        <dc:subject>
          <rdf:Bag />
        </dc:subject>
      </rdf:Description>
      <cc:Work
         rdf:about="">
        <dc:format>image/svg+xml</dc:format>
        <dc:title />
        <dc:date>2021-12-01T12:38:09</dc:date>
        <dc:identifier />
        <dc:description />
        <dc:creator>
          <cc:Agent>
            <dc:title>Pierre-Stephane LEBRE</dc:title>
          </cc:Agent>
        </dc:creator>
        <dc:publisher>
          <cc:Agent>
            <dc:title>QGIS 3.22.1-Białowieża</dc:title>
          </cc:Agent>
        </dc:publisher>
        <dc:type
           rdf:resource="http://purl.org/dc/dcmitype/StillImage" />
      </cc:Work>
    </rdf:RDF>
  </metadata>
</svg>
