<?xml version="1.0" encoding="UTF-8" standalone="no"?>
<svg
   xmlns:dc="http://purl.org/dc/elements/1.1/"
   xmlns:cc="http://creativecommons.org/ns#"
   xmlns:rdf="http://www.w3.org/1999/02/22-rdf-syntax-ns#"
   xmlns:svg="http://www.w3.org/2000/svg"
   xmlns="http://www.w3.org/2000/svg"
   xmlns:sodipodi="http://sodipodi.sourceforge.net/DTD/sodipodi-0.dtd"
   xmlns:inkscape="http://www.inkscape.org/namespaces/inkscape"
   version="1.2"
   height="23.654032"
   viewBox="0 0 78.124928 73.918963"
   width="24.999977"
   id="svg144"
   sodipodi:docname="BFC_s.svg"
   inkscape:version="1.0.2 (e86c870879, 2021-01-15, custom)">
  <sodipodi:namedview
     pagecolor="#ffffff"
     bordercolor="#666666"
     borderopacity="1"
     objecttolerance="10"
     gridtolerance="10"
     guidetolerance="10"
     inkscape:pageopacity="0"
     inkscape:pageshadow="2"
     inkscape:window-width="1842"
     inkscape:window-height="1057"
     id="namedview146"
     showgrid="false"
     inkscape:zoom="10.478312"
     inkscape:cx="15.868157"
     inkscape:cy="16.767203"
     inkscape:window-x="1750"
     inkscape:window-y="-8"
     inkscape:window-maximized="1"
     inkscape:current-layer="svg144"
     fit-margin-top="0"
     fit-margin-left="0"
     fit-margin-right="0"
     fit-margin-bottom="0"
     units="px"
     inkscape:document-rotation="0" />
  <defs
     id="defs2" />
  <rect
     x="-148.13544"
     y="-87.650505"
     height="2479.3826"
     width="3507.1265"
     id="rect36"
     style="font-style:normal;font-weight:400;font-size:34.375px;font-family:'MS Shell Dlg 2';fill:#000000;fill-opacity:0;fill-rule:evenodd;stroke:none;stroke-width:0.999751;stroke-linecap:square;stroke-linejoin:bevel" />
  <path
     d="m 16.820389,18.024659 0.541631,0.765166 2.16211,-0.107667 -1.09783,-0.921573 0.230743,-3.658057 -1.145979,-1.243892 -0.496898,-2.744838 1.573325,0.717545 1.778906,-0.285881 -0.263671,1.187946 0.777002,1.465937 0.993797,-0.26628 3.553152,1.034552 1.100004,-0.268765 1.788536,-0.799802 -1.353734,-0.628764 0.679803,-1.486471 5.050991,-1.8703891 1.776701,-1.858119 0.666787,0.27125 -0.696267,-0.787656 0.09968,-0.613295 0.421102,0.07803 -0.416754,-0.358105 0.159327,-1.064125 0.262087,0.212632 0.120186,0.02299 -0.414269,-0.513828 0.06707,-2.301774 4.709382,-1.62451796 0.250624,1.84190396 0.95652,0.971896 0.539766,0.249816 1.196271,-0.754076 0.670515,2.021111 1.577332,0.224499 0.519886,1.490789 1.538502,-0.443562 0.916789,0.646285 -0.382616,1.068101 0.52113,0.467077 -0.464593,0.422345 0.313344,0.494445 2.456843,-0.360311 0.60935,-1.34426 0.374225,0.226332 -0.500935,1.311953 0.504043,0.444214 -0.14721,0.9070051 2.082304,0.686916 1.054372,1.499207 1.497221,-0.557412 1.378273,0.837328 0.97547,-0.54688 1.53354,0.567102 1.08419,2.012973 0.91551,-0.503391 0.69537,0.816764 1.2059,-0.08285 0.73292,-0.573626 1.01585,0.944033 3.01463,0.418275 -1.78822,2.687558 -1.10281,4.077201 0.2966,1.122588 -0.44722,2.144 0.43076,0.896784 -0.96024,1.166978 -2.13109,-0.360528 -0.4854,1.11476 0.93136,0.09307 -1.75499,2.356385 -1.36367,0.910575 0.141,1.186984 -1.72237,1.5764 -0.20375,1.248148 0.5727,0.366772 -1.06401,1.83479 1.77549,-0.783215 0.01,-1.090094 2.64195,-0.321419 0.0534,1.953423 0.54132,0.08512 -0.1031,0.559307 0.9649,0.938844 -1.17173,0.730437 -0.0149,0.854351 1.06832,0.60528 0.0463,1.033869 1.04192,0.720497 -0.51551,1.500946 -2.39785,0.957762 0.74534,1.482619 1.51089,0.572696 0.35745,1.062725 -0.62516,0.05592 -0.53883,1.169863 0.95932,2.203146 1.9997,0.817697 1.75965,-0.544423 0.21245,0.823004 -1.09383,1.530768 -0.0199,0.965219 -1.7963,0.835092 -0.0643,0.836024 -0.9764,0.07703 -0.55558,1.033245 -0.60777,-0.0283 -0.86336,1.12982 0.63942,0.0543 -0.24969,0.7733 -1.45342,0.24006 -0.1236,0.44008 -0.91182,-0.17486 -0.27047,0.69441 -1.30717,-0.69565 0.16088,0.42735 -0.65312,0.16644 -0.83975,-0.97547 -1.950351,-0.19657 -0.197198,-1.12734 -1.448477,0.31955 -1.09814,-0.96988 -0.01055,0.93354 -1.086337,-0.082 -0.647217,-0.76802 -3.138847,-0.70994 -2.671748,2.13915 -1.249701,0.23665 -1.007465,1.17487 -0.467388,2.96555 0.85373,2.06242 -1.294123,-0.35466 -1.55714,0.58945 -0.0146,0.4885 -2.359646,-0.76457 -1.390079,0.67421 -0.441635,-0.81117 -1.160548,-0.31865 0.04874,-0.96149 -1.373926,-0.29598 -0.311788,0.37609 -0.451545,-0.90064 -1.064933,0.0646 -0.500005,-0.62982 -2.082307,-0.61802 -0.218939,1.30465 -1.785429,-0.31241 -0.394418,0.36677 -0.646906,-0.49876 -1.071115,0.36367 -1.66369,-1.33665 -1.459631,0.46552 -0.977644,-1.48324 -2.855301,-0.73883 -0.0031,-0.56986 -0.513673,0.66582 -0.479192,-0.1643 0.417375,-1.57018 -1.267812,-0.0618 -0.974879,-0.97208 1.047382,-0.36957 0.996562,-1.60218 1.823607,-7.708448 0.245343,0.145038 0.80033,-0.023 -0.836675,-1.019266 -0.585089,1.069278 1.313693,-7.090461 1.460874,1.724886 0.540698,2.059009 0.598136,0.622055 -1.086057,-3.532961 -2.222374,-1.785709 -0.02423,-0.804991 0.595681,-0.135407 0.141932,-1.532911 0.366771,0.0174 -0.94661,-1.230752 0.696918,-1.057757 -0.91741,0.03635 -2.658108,-1.727682 -1.584788,-2.605921 0.951985,-1.553723 -1.345285,-0.884482 0.472171,-1.015604 -1.950782,-0.305358 -0.01584,-0.653741 0.677162,-0.259507 -0.313248,-0.615532 0.415231,0.0084 -1.090778,-0.149169 0.396996,-0.329339 -0.281874,-0.161719 -1.10106,0.544022 -0.452508,-0.564089 0.944281,0.186134 0.241988,-0.356644 0.02299,-0.355962 -0.164825,0.332167 -0.370531,-0.430484 -0.539549,0.505876 -0.404731,-0.667626 0.19915,0.795889 -1.0061905,-0.407217 -0.08645,0.952823 -0.321667,-1.323726 0.495035,-0.801263 -0.504851,0.776319 -0.725529,-0.373109 0.409205,0.0174 -0.411348,-0.1857 0.311819,-0.284266 0.139198,-0.207165 -0.03532,-0.11534 0.08241,-0.02578 -0.0999,0.0071 0.02423,0.163924 -0.313746,0.213068 -0.178586,-0.685457 0.113135,0.750909 -0.523987,0.243106 -0.327227,-0.550018 0.06266,-0.317318 -0.101082,-0.186135 0.100399,-0.155723 -0.08636,-0.126803 -0.04296,0.7825 -1.033497,-0.753176 -0.576267,0.390908 -0.402836,-0.901412 -0.819373,0.246616 0.203841,-0.521407 -0.195796,-0.09826 0.08751,-0.137892 -0.01429,-0.07546 -0.07465,-0.0337 -0.0031,-0.06365 -0.477049,1.369515 -0.974816,-0.06651 -0.422097,-1.900459 -1.282536,-0.130158 2.119864,-0.116428 0.345244,-0.534765 -0.911073,-0.733916 -0.517649,0.494445 -0.312628,-0.892094 0.548123,-0.429955 -0.06033,0.441014 1.360941,0.03659 -0.10394,0.157588 0.100616,0.128448 0.736805,0.379975 0.130966,-0.275568 -0.916852,-0.255625 0.496588,-0.09798 -0.752306,-0.222387 0.104965,-0.137706 0.205084,-0.05098 0.09599,-0.114626 -1.026321,0.160011 0.29461,-0.380875 0.503453,-0.226673 0.193808,-0.137987 0.04998,-0.06613 -1.803136,0.656846 -0.901941,-0.270442 0.189179,-1.199192 1.379797,-0.10863 -0.507646,-0.262118 0.675515,0.112141 -0.429179,-0.32673 0.152804,-0.201263 2.483218,-0.02143 0.394263,-0.410573 0.0949,0.03013 -0.04076,0.375688 0.09627,0.03532 -0.05461,0.179207 v 0.226332 l 0.05327,0.132954 0.148827,-0.548434 0.151499,0.04489 -0.08272,0.09223 0.140099,0.428527 0.105027,0.01149 0.161035,-0.821361 1.246222,0.429521 0.310111,-1.165489 1.6096385,-0.205736 0.09999,0.266342 -0.201481,0.330831 0.08198,0.04955 0.808842,-0.705772 -0.332011,0.924681 0.601428,-0.424273 -0.194305,0.265131 0.576889,0.280571 -0.105742,0.246306 0.544737,0.553155 0.0059,0.453098 0.684618,0.86047 1.927236,-1.377529 -0.130779,0.509479 0.480714,-0.16498 0.13081,0.570023 0.867181,-0.43825 0.208998,1.124949 -0.09689,-1.219042 0.759016,-0.316759"
     fill-rule="evenodd"
     vector-effect="none"
     id="path42"
     style="font-style:normal;font-weight:400;font-size:34.375px;font-family:'MS Shell Dlg 2';fill:none;stroke:#ffffff;stroke-width:0.797405;stroke-linecap:square;stroke-linejoin:bevel;stroke-miterlimit:4;stroke-dasharray:none;stroke-opacity:1" />
  <path
     d="m 35.715573,66.704478 0.313994,0.0618 -0.127642,-0.34937 -0.152492,0.11397 -0.03386,0.17361"
     fill-rule="evenodd"
     vector-effect="none"
     id="path44"
     style="font-style:normal;font-weight:400;font-size:34.375px;font-family:'MS Shell Dlg 2';fill:none;stroke:#978889;stroke-width:0.352134;stroke-linecap:square;stroke-linejoin:bevel;stroke-opacity:1" />
  <path
     d="m 52.98127,58.804718 0.337569,0.52796 0.817725,-0.52486 -1.211213,-0.66865 0.05592,0.66555"
     fill-rule="evenodd"
     vector-effect="none"
     id="path46"
     style="font-style:normal;font-weight:400;font-size:34.375px;font-family:'MS Shell Dlg 2';fill:none;stroke:#978889;stroke-width:0.352134;stroke-linecap:square;stroke-linejoin:bevel;stroke-opacity:1" />
  <path
     d="m 63.868925,61.962578 0.13509,-0.82425 2.24163,-1.35653 1.0171,0.34223 0.0435,-2.453116 0.69351,0.0033 1.0649,6.571476 -0.7,1.35625 0.0347,2.30093 -0.55869,0.49597 0.48665,0.0218 -0.72826,1.78015 -2.59132,-1.26617 0.6506,-1.06742 -1.49815,-0.28103 0.74317,-1.23293 -1.11149,0.0668 -0.14284,-0.50653 0.84411,-0.73727 -1.13511,-0.66306 -0.15249,-0.68166 0.84783,-0.29256 -0.89443,-0.73697 0.70997,-0.83912"
     fill-rule="evenodd"
     vector-effect="none"
     id="path48"
     style="font-style:normal;font-weight:400;font-size:34.375px;font-family:'MS Shell Dlg 2';fill:none;stroke:#ffffff;stroke-width:0.797405;stroke-linecap:square;stroke-linejoin:bevel;stroke-miterlimit:4;stroke-dasharray:none;stroke-opacity:1" />
  <path
     d="m 18.151136,38.770693 0.830462,0.257769 -0.03199,1.397192 -0.774859,-1.198756 -0.02361,-0.456205"
     fill-rule="evenodd"
     vector-effect="none"
     id="path50"
     style="font-style:normal;font-weight:400;font-size:34.375px;font-family:'MS Shell Dlg 2';fill:none;stroke:#978889;stroke-width:0.352134;stroke-linecap:square;stroke-linejoin:bevel;stroke-opacity:1" />
  <path
     d="m 18.06015,37.398942 -0.558094,-0.13199 -0.141901,-0.33636 1.602805,0.715867 -0.90281,-0.247517"
     fill-rule="evenodd"
     vector-effect="none"
     id="path52"
     style="font-style:normal;font-weight:400;font-size:34.375px;font-family:'MS Shell Dlg 2';fill:none;stroke:#978889;stroke-width:0.352134;stroke-linecap:square;stroke-linejoin:bevel;stroke-opacity:1" />
  <path
     d="m 9.5147475,27.797863 0.5256635,0.433186 -0.1984365,0.237453 -0.786818,-0.324711 0.03886,-0.573688 0.42073,0.22776"
     fill-rule="evenodd"
     vector-effect="none"
     id="path54"
     style="font-style:normal;font-weight:400;font-size:34.375px;font-family:'MS Shell Dlg 2';fill:none;stroke:#978889;stroke-width:0.352134;stroke-linecap:square;stroke-linejoin:bevel;stroke-opacity:1" />
  <path
     d="m 14.235747,31.206941 -0.406005,-0.500004 0.397929,0.09164 0.342665,0.966771 -0.334589,-0.558405"
     fill-rule="evenodd"
     vector-effect="none"
     id="path56"
     style="font-style:normal;font-weight:400;font-size:34.375px;font-family:'MS Shell Dlg 2';fill:none;stroke:#978889;stroke-width:0.352134;stroke-linecap:square;stroke-linejoin:bevel;stroke-opacity:1" />
  <path
     d="m 59.980095,62.086738 -0.23727,0.24317 -0.25342,-0.11926 0.44813,-0.21489 0.0426,0.091"
     fill-rule="evenodd"
     vector-effect="none"
     id="path58"
     style="font-style:normal;font-weight:400;font-size:34.375px;font-family:'MS Shell Dlg 2';fill:none;stroke:#978889;stroke-width:0.352134;stroke-linecap:square;stroke-linejoin:bevel;stroke-opacity:1" />
  <path
     d="m 0.24689146,18.625591 0.219187,-0.291162 0.19387,0.175604 -0.373109,0.167155 -0.03995,-0.0516"
     fill-rule="evenodd"
     vector-effect="none"
     id="path60"
     style="font-style:normal;font-weight:400;font-size:34.375px;font-family:'MS Shell Dlg 2';fill:none;stroke:#978889;stroke-width:0.352134;stroke-linecap:square;stroke-linejoin:bevel;stroke-opacity:1" />
  <path
     d="m 13.723721,33.209445 -0.475993,-0.02827 -0.08223,-0.217727 0.270225,0.0065 0.287994,0.239441"
     fill-rule="evenodd"
     vector-effect="none"
     id="path62"
     style="font-style:normal;font-weight:400;font-size:34.375px;font-family:'MS Shell Dlg 2';fill:none;stroke:#978889;stroke-width:0.352134;stroke-linecap:square;stroke-linejoin:bevel;stroke-opacity:1" />
  <path
     d="m 61.019555,61.982088 0.21365,-0.21183 0.19347,-0.0456 -0.20341,0.27855 -0.20371,-0.0211"
     fill-rule="evenodd"
     vector-effect="none"
     id="path64"
     style="font-style:normal;font-weight:400;font-size:34.375px;font-family:'MS Shell Dlg 2';fill:none;stroke:#978889;stroke-width:0.352134;stroke-linecap:square;stroke-linejoin:bevel;stroke-opacity:1" />
  <path
     d="m 8.2340135,25.667283 -0.219746,-0.04156 -0.130966,-0.184457 0.428061,0.101579 -0.07735,0.124442"
     fill-rule="evenodd"
     vector-effect="none"
     id="path66"
     style="font-style:normal;font-weight:400;font-size:34.375px;font-family:'MS Shell Dlg 2';fill:none;stroke:#978889;stroke-width:0.352134;stroke-linecap:square;stroke-linejoin:bevel;stroke-opacity:1" />
  <path
     d="m 11.227456,26.273619 0.0324,-0.124442 0.0931,-0.100119 -0.138638,0.35503 0.01305,-0.130469"
     fill-rule="evenodd"
     vector-effect="none"
     id="path68"
     style="font-style:normal;font-weight:400;font-size:34.375px;font-family:'MS Shell Dlg 2';fill:none;stroke:#978889;stroke-width:0.352134;stroke-linecap:square;stroke-linejoin:bevel;stroke-opacity:1" />
  <path
     d="m 10.585302,27.710729 -0.06309,-0.01398 -0.09058,-0.135997 0.275133,0.07977 -0.12146,0.07017"
     fill-rule="evenodd"
     vector-effect="none"
     id="path70"
     style="font-style:normal;font-weight:400;font-size:34.375px;font-family:'MS Shell Dlg 2';fill:none;stroke:#978889;stroke-width:0.352134;stroke-linecap:square;stroke-linejoin:bevel;stroke-opacity:1" />
  <path
     d="m 60.703075,62.174308 0.0301,-0.11863 0.21365,-0.0202 -0.12453,0.16616 -0.11925,-0.0273"
     fill-rule="evenodd"
     vector-effect="none"
     id="path72"
     style="font-style:normal;font-weight:400;font-size:34.375px;font-family:'MS Shell Dlg 2';fill:none;stroke:#978889;stroke-width:0.352134;stroke-linecap:square;stroke-linejoin:bevel;stroke-opacity:1" />
  <path
     d="m 54.635018,60.252228 -0.10776,0.10344 -0.02547,0.005 0.045,-0.15343 0.148454,-0.041 -0.06023,0.0857"
     fill-rule="evenodd"
     vector-effect="none"
     id="path74"
     style="font-style:normal;font-weight:400;font-size:34.375px;font-family:'MS Shell Dlg 2';fill:none;stroke:#978889;stroke-width:0.352134;stroke-linecap:square;stroke-linejoin:bevel;stroke-opacity:1" />
  <path
     d="m 6.0664355,16.870478 -0.09036,0.0087 -0.06607,-0.05837 0.173647,-0.02734 0.06968,0.118633 -0.08689,-0.04169"
     fill-rule="evenodd"
     vector-effect="none"
     id="path76"
     style="font-style:normal;font-weight:400;font-size:34.375px;font-family:'MS Shell Dlg 2';fill:none;stroke:#978889;stroke-width:0.352134;stroke-linecap:square;stroke-linejoin:bevel;stroke-opacity:1" />
  <path
     d="m 11.172752,16.555459 0.0059,-0.158084 0.136774,-0.04287 -0.07011,0.192938 -0.0726,0.0081"
     fill-rule="evenodd"
     vector-effect="none"
     id="path78"
     style="font-style:normal;font-weight:400;font-size:34.375px;font-family:'MS Shell Dlg 2';fill:none;stroke:#978889;stroke-width:0.352134;stroke-linecap:square;stroke-linejoin:bevel;stroke-opacity:1" />
  <path
     d="m 11.485286,26.24007 0.009,-0.06449 0.112762,-0.0521 -0.126119,0.159048 0.0044,-0.04247"
     fill-rule="evenodd"
     vector-effect="none"
     id="path80"
     style="font-style:normal;font-weight:400;font-size:34.375px;font-family:'MS Shell Dlg 2';fill:none;stroke:#978889;stroke-width:0.352134;stroke-linecap:square;stroke-linejoin:bevel;stroke-opacity:1" />
  <path
     d="m 18.451462,49.732588 -0.07766,-0.0084 -0.02454,0.128264 3.11e-4,-0.114285 0.06893,-0.05219 0.03293,0.04662"
     fill-rule="evenodd"
     vector-effect="none"
     id="path82"
     style="font-style:normal;font-weight:400;font-size:34.375px;font-family:'MS Shell Dlg 2';fill:none;stroke:#978889;stroke-width:0.352134;stroke-linecap:square;stroke-linejoin:bevel;stroke-opacity:1" />
  <path
     d="m 19.311094,38.828752 0.03199,-0.09192 0.09782,0.04411 -0.118323,0.08042 -0.01149,-0.03262"
     fill-rule="evenodd"
     vector-effect="none"
     id="path84"
     style="font-style:normal;font-weight:400;font-size:34.375px;font-family:'MS Shell Dlg 2';fill:none;stroke:#978889;stroke-width:0.352134;stroke-linecap:square;stroke-linejoin:bevel;stroke-opacity:1" />
  <path
     d="m 11.023304,28.05703 0.05318,-0.03659 -0.125343,0.117826 -0.0081,-0.09347 0.08021,0.01212"
     fill-rule="evenodd"
     vector-effect="none"
     id="path86"
     style="font-style:normal;font-weight:400;font-size:34.375px;font-family:'MS Shell Dlg 2';fill:none;stroke:#978889;stroke-width:0.352134;stroke-linecap:square;stroke-linejoin:bevel;stroke-opacity:1" />
  <path
     d="m 64.286635,58.016806 -0.0826,-0.05122 0.20776,0.02984 -0.0196,0.02951 -0.10561,-0.0081"
     fill-rule="evenodd"
     vector-effect="none"
     id="path88"
     style="font-style:normal;font-weight:400;font-size:34.375px;font-family:'MS Shell Dlg 2';fill:none;stroke:#978889;stroke-width:0.352134;stroke-linecap:square;stroke-linejoin:bevel;stroke-opacity:1" />
  <path
     d="m 1.2293805,21.837785 -0.06067,-0.0205 0.08583,0.01988 0.03302,0.06384 -0.05818,-0.06337"
     fill-rule="evenodd"
     vector-effect="none"
     id="path90"
     style="font-style:normal;font-weight:400;font-size:34.375px;font-family:'MS Shell Dlg 2';fill:none;stroke:#978889;stroke-width:0.352134;stroke-linecap:square;stroke-linejoin:bevel;stroke-opacity:1" />
  <path
     d="m 19.559543,49.302759 0.04318,-0.06831 0.05526,0.07297 -0.08974,0.01554 -0.0087,-0.0202"
     fill-rule="evenodd"
     vector-effect="none"
     id="path92"
     style="font-style:normal;font-weight:400;font-size:34.375px;font-family:'MS Shell Dlg 2';fill:none;stroke:#978889;stroke-width:0.352134;stroke-linecap:square;stroke-linejoin:bevel;stroke-opacity:1" />
  <path
     d="m 4.5284925,23.493958 0.04784,-0.0047 0.0084,0.122051 -0.06791,-0.105245 0.0118,-0.01211"
     fill-rule="evenodd"
     vector-effect="none"
     id="path94"
     style="font-style:normal;font-weight:400;font-size:34.375px;font-family:'MS Shell Dlg 2';fill:none;stroke:#978889;stroke-width:0.352134;stroke-linecap:square;stroke-linejoin:bevel;stroke-opacity:1" />
  <path
     d="m 8.2447305,16.608485 0.01305,-0.0338 0.104002,0.004 -0.05256,0.06337 -0.06443,-0.03352"
     fill-rule="evenodd"
     vector-effect="none"
     id="path96"
     style="font-style:normal;font-weight:400;font-size:34.375px;font-family:'MS Shell Dlg 2';fill:none;stroke:#978889;stroke-width:0.352134;stroke-linecap:square;stroke-linejoin:bevel;stroke-opacity:1" />
  <path
     d="m 77.914095,73.691188 0.022,-0.0568 0.0714,0.0441 -0.0382,0.0342 -0.0553,-0.0214"
     fill-rule="evenodd"
     vector-effect="none"
     id="path98"
     style="font-style:normal;font-weight:400;font-size:34.375px;font-family:'MS Shell Dlg 2';fill:none;stroke:#978889;stroke-width:0.352134;stroke-linecap:square;stroke-linejoin:bevel;stroke-opacity:1" />
  <path
     d="m 57.309245,61.660018 0.0764,0.0258 -0.0621,0.0609 -0.0158,-0.0438 v -0.0429"
     fill-rule="evenodd"
     vector-effect="none"
     id="path100"
     style="font-style:normal;font-weight:400;font-size:34.375px;font-family:'MS Shell Dlg 2';fill:none;stroke:#978889;stroke-width:0.352134;stroke-linecap:square;stroke-linejoin:bevel;stroke-opacity:1" />
  <path
     d="m 55.104577,61.027088 -0.09968,-0.0286 -0.0065,-0.0118 0.147523,0.0311 -0.04134,0.009"
     fill-rule="evenodd"
     vector-effect="none"
     id="path102"
     style="font-style:normal;font-weight:400;font-size:34.375px;font-family:'MS Shell Dlg 2';fill:none;stroke:#978889;stroke-width:0.352134;stroke-linecap:square;stroke-linejoin:bevel;stroke-opacity:1" />
  <path
     d="m 19.603653,39.267902 0.03942,-0.03324 0.02609,0.0612 -0.0466,0.01398 -0.01895,-0.04191"
     fill-rule="evenodd"
     vector-effect="none"
     id="path104"
     style="font-style:normal;font-weight:400;font-size:34.375px;font-family:'MS Shell Dlg 2';fill:none;stroke:#978889;stroke-width:0.352134;stroke-linecap:square;stroke-linejoin:bevel;stroke-opacity:1" />
  <path
     d="m 0.95182446,19.080025 1.24e-4,-0.03563 0.02827,-0.03045 0.03224,0.06573 h -0.06051"
     fill-rule="evenodd"
     vector-effect="none"
     id="path106"
     style="font-style:normal;font-weight:400;font-size:34.375px;font-family:'MS Shell Dlg 2';fill:none;stroke:#978889;stroke-width:0.352134;stroke-linecap:square;stroke-linejoin:bevel;stroke-opacity:1" />
  <path
     d="m 1.3093705,21.899975 0.02299,1.25e-4 0.004,0.0031 -0.01274,0.01212 -0.01429,-0.01522"
     fill-rule="evenodd"
     vector-effect="none"
     id="path108"
     style="font-style:normal;font-weight:400;font-size:34.375px;font-family:'MS Shell Dlg 2';fill:none;stroke:#978889;stroke-width:0.352134;stroke-linecap:square;stroke-linejoin:bevel;stroke-opacity:1" />
  <path
     d="m 18.683137,18.601392 0.0068,0.01149 -0.01211,0.0034 -0.0059,-0.01119 0.01118,-0.0037"
     fill-rule="evenodd"
     vector-effect="none"
     id="path110"
     style="font-style:normal;font-weight:400;font-size:34.375px;font-family:'MS Shell Dlg 2';fill:none;stroke:#978889;stroke-width:0.352134;stroke-linecap:square;stroke-linejoin:bevel;stroke-opacity:1" />
  <path
     d="m 54.139672,26.666019 1.466467,-0.329495 -0.02452,-1.048345 2.209016,-1.640361 0.40871,0.691296 0.9463,-0.248418 0.47826,0.546538 0.64598,-0.472823 2.18416,1.4304 0.004,1.085186 0.74472,0.559586 -0.82235,0.275816 -0.48541,1.11476 0.93136,0.09307 -1.75499,2.356385 -1.36367,0.910575 0.141,1.186984 -1.72237,1.5764 -0.0953,1.053719 -1.09475,1.391322 -0.77082,0.06275 -0.46055,-0.62423 -0.882624,0.634791 -1.499392,-1.823637 -1.360879,-0.01833 -0.812726,2.619868 -0.483543,-0.954345 -1.417415,0.02423 -0.754664,1.135728 -1.564596,-0.0789 -0.530448,-0.880102 0.599068,-0.33139 -0.03326,-1.036324 -1.383867,-0.581391 -0.619569,-1.623618 -0.888832,0.777964 -0.124535,-0.46366 -1.213046,0.262118 -0.833538,-0.626404 0.145969,-2.068359 -1.198166,-3.957232 0.683251,-0.187409 -0.621434,-1.477959 0.866466,-0.18862 -0.06989,-0.909209 0.609661,-0.509604 -0.997836,-1.527288 0.588506,-1.462613 2.300314,-0.07328 0.646906,0.835588 -0.245343,0.544053 0.87796,0.157028 0.815552,1.837834 4.57674,-0.698813 1.091615,1.419652 -0.386032,0.337323 0.281997,0.694465 1.086337,0.009 0.42331,0.790235 0.762742,-0.572446"
     fill-rule="evenodd"
     vector-effect="none"
     id="path116"
     style="font-style:normal;font-weight:400;font-size:34.375px;font-family:'MS Shell Dlg 2';fill:#ffffff;fill-opacity:1;stroke:#f7f7f7;stroke-width:0.0953696;stroke-linecap:square;stroke-linejoin:bevel;stroke-opacity:1" />
  <metadata
     id="metadata142">
    <rdf:RDF>
      <rdf:Description
         dc:format="image/svg+xml"
         dc:title=""
         dc:date="2021-12-01T12:38:09"
         dc:identifier=""
         dc:description="">
        <dc:creator>
          <rdf:Bag>
            <rdf:li>Pierre-Stephane LEBRE</rdf:li>
          </rdf:Bag>
        </dc:creator>
        <dc:publisher>
          <rdf:Bag>
            <rdf:li>QGIS 3.22.1-Białowieża</rdf:li>
          </rdf:Bag>
        </dc:publisher>
        <dc:subject>
          <rdf:Bag />
        </dc:subject>
      </rdf:Description>
      <cc:Work
         rdf:about="">
        <dc:format>image/svg+xml</dc:format>
        <dc:title></dc:title>
        <dc:date>2021-12-01T12:38:09</dc:date>
        <dc:identifier />
        <dc:description />
        <dc:creator>
          <cc:Agent>
            <dc:title>Pierre-Stephane LEBRE</dc:title>
          </cc:Agent>
        </dc:creator>
        <dc:publisher>
          <cc:Agent>
            <dc:title>QGIS 3.22.1-Białowieża</dc:title>
          </cc:Agent>
        </dc:publisher>
        <dc:type
           rdf:resource="http://purl.org/dc/dcmitype/StillImage" />
      </cc:Work>
    </rdf:RDF>
  </metadata>
</svg>
