<?xml version="1.0" encoding="UTF-8" standalone="no"?>
<svg
   xmlns:dc="http://purl.org/dc/elements/1.1/"
   xmlns:cc="http://creativecommons.org/ns#"
   xmlns:rdf="http://www.w3.org/1999/02/22-rdf-syntax-ns#"
   xmlns:svg="http://www.w3.org/2000/svg"
   xmlns="http://www.w3.org/2000/svg"
   xmlns:sodipodi="http://sodipodi.sourceforge.net/DTD/sodipodi-0.dtd"
   xmlns:inkscape="http://www.inkscape.org/namespaces/inkscape"
   version="1.2"
   height="17.673891"
   viewBox="0 0 78.125 55.230994"
   width="25"
   id="svg90"
   sodipodi:docname="BFC_dep_s.svg"
   inkscape:version="1.0.2 (e86c870879, 2021-01-15, custom)">
  <sodipodi:namedview
     pagecolor="#ffffff"
     bordercolor="#666666"
     borderopacity="1"
     objecttolerance="10"
     gridtolerance="10"
     guidetolerance="10"
     inkscape:pageopacity="0"
     inkscape:pageshadow="2"
     inkscape:window-width="1842"
     inkscape:window-height="1057"
     id="namedview92"
     showgrid="false"
     units="px"
     inkscape:zoom="10.478312"
     inkscape:cx="32.937"
     inkscape:cy="12.554612"
     inkscape:window-x="1750"
     inkscape:window-y="-8"
     inkscape:window-maximized="1"
     inkscape:current-layer="svg90"
     inkscape:document-rotation="0"
     fit-margin-top="0"
     fit-margin-left="0"
     fit-margin-right="0"
     fit-margin-bottom="0" />
  <defs
     id="defs2" />
  <rect
     x="-0.000115"
     y="0"
     height="55.230991"
     width="78.125122"
     id="rect36"
     style="font-style:normal;font-weight:400;font-size:34.375px;font-family:'MS Shell Dlg 2';fill:#000000;fill-opacity:0;fill-rule:evenodd;stroke:none;stroke-width:0.0222706;stroke-linecap:square;stroke-linejoin:bevel" />
  <path
     d="m 27.341228,21.416393 1.42398,-2.820188 -0.341408,-0.407173 0.853409,-0.111664 -0.678141,-0.909574 1.371867,-0.732479 -0.138744,-1.983171 -0.924452,0.106097 -0.259229,-0.752478 0.973446,-0.633887 -0.0755,-1.237442 3.612955,-0.209053 -0.276157,-0.851649 0.683484,-0.518257 3.066656,0.410557 -0.02138,0.963135 1.190137,0.494852 -0.468349,0.744149 1.007742,-0.33339 1.423089,2.203337 -1.107291,0.967678 0.617562,0.320318 0.191749,1.671606 0.87991,-0.553379 1.462952,1.35327 0.77279,-0.774325 -0.04298,0.642038 1.273875,0.618208 -0.05323,1.001418 1.01487,-0.813788 1.157846,0.302278 0.364348,-0.781852 0.785705,0.491266 0.188632,1.796366 -1.733986,1.414046 1.082127,0.300652 -0.06236,1.26586 0.966985,0.02828 -0.319137,1.622409 0.703306,0.264575 -1.089254,3.614513 -0.756976,1.343138 -1.505936,0.787707 0.539393,0.765885 -0.92356,0.742947 -2.361125,0.83804 -0.74829,-0.789269 -0.66344,0.534495 -1.5458,-0.163911 -3.236357,1.537113 -2.131293,-1.990319 0.107121,-0.594625 -0.70219,0.181283 -1.54669,-0.798846 0.132064,-0.616226 -0.846506,0.368356 -0.196202,-0.820227 -1.318416,-0.304659 -0.764105,-0.900177 0.101333,-1.436005 -1.396365,-0.57369 0.232059,-2.362462 -0.548524,0.434276 -0.636714,-1.578759 0.799734,-0.810871 -0.09376,-1.567514 0.53271,-0.398843"
     fill-rule="evenodd"
     vector-effect="none"
     id="path42"
     style="font-style:normal;font-weight:400;font-size:34.375px;font-family:'MS Shell Dlg 2';fill:#ffffff;fill-opacity:1;stroke:#f7f7f7;stroke-width:0.173605;stroke-linecap:square;stroke-linejoin:bevel;stroke-opacity:1" />
  <path
     d="m 26.929668,29.93497 0.987255,-0.136296 0.09955,0.396418 -0.562556,0.456991 -0.524248,-0.717113"
     fill-rule="evenodd"
     vector-effect="none"
     id="path44"
     style="font-style:normal;font-weight:400;font-size:34.375px;font-family:'MS Shell Dlg 2';fill:#969696;fill-opacity:1;stroke:#f7f7f7;stroke-width:0.173605;stroke-linecap:square;stroke-linejoin:bevel;stroke-opacity:1" />
  <path
     d="m 59.614385,21.478661 1.432,-0.79713 0.954956,0.722547 0.386179,-0.540664 0.870556,0.40998 0.311558,-1.198379 1.022664,0.130706 0.123377,-0.973045 1.661159,0.85167 0.46368,-0.56507 1.23267,0.09501 1.05473,1.483977 -0.62891,-0.164023 0.59128,1.762136 -0.86009,1.385673 1.9636,-0.549859 0.78124,0.594623 -1.72217,1.331782 0.23629,0.96899 -3.55305,3.707159 -0.0688,0.973445 -3.910936,2.612114 0.518234,0.823788 -0.114467,2.580489 -4.730488,4.252789 0.107116,0.786596 -1.299261,-1.142923 0.826903,-0.971893 -0.574351,-0.840936 1.947777,-1.91059 -1.541567,-1.539341 -1.222207,-0.130505 -0.48773,-1.747571 -0.625806,-0.307334 0.266146,-0.613108 -0.832928,-0.127388 -0.01452,-0.692391 -1.114192,0.291744 -0.588612,-0.942491 -0.969883,0.586162 -0.139411,-0.727357 0.720449,-0.02361 -0.259895,-0.787041 0.844281,-1.135353 -2.036422,-2.658215 2.945722,-1.106623 0.410001,-0.773234 0.79439,0.389067 1.961363,-0.850959 0.06861,-0.755863 0.704856,0.123378 0.532495,-0.950729 0.58616,0.410446 0.975224,-1.750644"
     fill-rule="evenodd"
     vector-effect="none"
     id="path46"
     style="font-style:normal;font-weight:400;font-size:34.375px;font-family:'MS Shell Dlg 2';fill:#ffffff;fill-opacity:1;stroke:#f7f7f7;stroke-width:0.173605;stroke-linecap:square;stroke-linejoin:bevel;stroke-opacity:1" />
  <path
     d="m 47.723912,26.419562 0.248093,-0.484607 0.858085,1.144038 1.726636,-0.443182 2.115261,2.766226 -0.844276,1.135354 0.259889,0.787041 -0.720448,0.02361 0.139416,0.727357 0.969882,-0.586162 0.588612,0.942491 1.114193,-0.291744 0.01451,0.69239 0.832928,0.127389 -0.266143,0.613108 0.625811,0.307334 0.487721,1.747572 1.222207,0.130504 1.597694,1.681428 -2.003904,1.768501 0.574351,0.840936 -0.826903,0.971893 1.644901,1.513502 -1.246927,2.692289 -2.844843,3.440802 -2.195198,0.172376 -0.198882,-1.059188 -1.122436,-0.73181 -1.504821,1.694346 -1.02645,0.126941 -0.133846,-1.278332 -0.44853,0.193313 -0.229611,-0.711548 -0.263014,0.832031 -0.501533,-1.564064 -1.17878,-0.64095 0.341408,-1.107958 1.424869,-0.336507 0.04321,-0.554539 -0.962087,-0.447415 0.0082,-1.205731 0.658539,-0.116915 0.500643,-1.240696 -0.781695,-1.989428 -0.49619,-0.03786 0.416907,-0.884141 -0.960308,-0.905076 2.009695,-0.674128 -0.97634,-1.095936 -1.018434,0.152108 -0.408442,-1.134462 -0.685041,0.261903 -0.137856,-1.14493 0.930909,-0.752746 -0.539393,-0.765885 1.505936,-0.787708 0.756976,-1.343138 0.904852,-3.169993"
     fill-rule="evenodd"
     vector-effect="none"
     id="path48"
     style="font-style:normal;font-weight:400;font-size:34.375px;font-family:'MS Shell Dlg 2';fill:#ffffff;fill-opacity:1;stroke:#f7f7f7;stroke-width:0.173605;stroke-linecap:square;stroke-linejoin:bevel;stroke-opacity:1" />
  <path
     d="m 47.109691,36.108371 -0.05412,-0.02027 0.0089,-0.123825 0.08841,0.08419 -0.04321,0.05991"
     fill-rule="evenodd"
     vector-effect="none"
     id="path50"
     style="font-style:normal;font-weight:400;font-size:34.375px;font-family:'MS Shell Dlg 2';fill:#969696;fill-opacity:1;stroke:#f7f7f7;stroke-width:0.173605;stroke-linecap:square;stroke-linejoin:bevel;stroke-opacity:1" />
  <path
     d="m 47.282288,35.981873 -0.05367,-0.01714 -0.0053,-0.04276 0.06503,0.0015 -0.006,0.05835"
     fill-rule="evenodd"
     vector-effect="none"
     id="path52"
     style="font-style:normal;font-weight:400;font-size:34.375px;font-family:'MS Shell Dlg 2';fill:#969696;fill-opacity:1;stroke:#f7f7f7;stroke-width:0.173605;stroke-linecap:square;stroke-linejoin:bevel;stroke-opacity:1" />
  <path
     d="m 8.5321587,25.208935 0.619233,-1.629758 -1.290601,-2.313934 3.8065063,-0.95082 0.96888,1.554976 2.63414,1.038098 0.831227,-0.860201 1.360397,0.323703 0.151127,-1.47723 1.330266,2.296563 1.309019,0.135851 0.783256,1.123325 1.382933,0.38439 0.478373,-1.225771 0.428931,0.122712 -0.111799,1.381442 1.197044,-0.58037 0.73181,1.756034 2.106571,-0.991708 -0.193753,2.404329 0.786151,-0.07327 0.806863,1.119096 -0.489729,1.138694 -2.179844,0.789044 0.155227,2.027737 -0.958972,0.7886 0.663664,0.0076 0.104226,1.848009 0.830691,0.738272 -0.84294,0.727354 0.237849,1.189025 -3.915699,1.78699 -0.906211,-1.110631 -1.150363,0.324258 -1.054756,-0.542735 0.08706,0.860533 -0.761409,0.04011 0.192975,0.72491 -1.22076,0.833142 -0.565071,-0.217358 -0.125361,-1.105516 -1.323095,0.619125 -0.708671,-0.701748 -1.447877,0.834035 -0.587074,-0.284395 -1.959386,-1.831993 0.574604,-5.613519 -0.836193,-0.844499 -0.5448503,-4.243878 -1.592055,-1.344027 0.20745,-0.974561"
     fill-rule="evenodd"
     vector-effect="none"
     id="path54"
     style="font-style:normal;font-weight:400;font-size:34.375px;font-family:'MS Shell Dlg 2';fill:#ffffff;fill-opacity:1;stroke:#f7f7f7;stroke-width:0.173605;stroke-linecap:square;stroke-linejoin:bevel;stroke-opacity:1" />
  <path
     d="m 52.990892,12.4404 0.627142,-1.543461 0.235178,0.934962 1.287457,-1.556155 1.316197,-0.4851417 1.244256,2.0055977 2.642407,-0.735241 1.371867,1.56767 1.852903,-1.356255 3.337235,2.713065 -0.90618,1.974264 1.13468,3.303726 -0.57279,0.836772 -1.845569,-0.867527 -0.123377,0.973045 -1.022664,-0.130706 -0.311558,1.198379 -0.870556,-0.40998 -0.386179,0.540664 -0.954956,-0.722547 -1.098387,0.384791 -1.308837,2.162984 -0.58616,-0.410446 -0.532499,0.950728 -0.704857,-0.123378 -0.0686,0.755864 -1.961363,0.850959 -0.794394,-0.389068 -0.409997,0.773235 -2.397872,1.121989 -2.358005,0.317801 -1.620406,-1.366522 0.322032,-1.61662 -0.969881,-0.03407 0.06236,-1.265859 -1.082126,-0.300653 1.733985,-1.414046 -0.188631,-1.796366 -0.789492,-0.490286 -0.513559,0.830046 -0.257894,-0.504763 0.619567,-1.29138 1.674079,0.01982 0.534938,-0.773301 0.463004,0.767154 1.377434,-0.337177 -0.07639,-2.997283 0.750292,-0.0013 0.249208,-0.880823 1.003731,0.127543 0.252994,-1.16446 0.620232,-0.146161"
     fill-rule="evenodd"
     vector-effect="none"
     id="path56"
     style="font-style:normal;font-weight:400;font-size:34.375px;font-family:'MS Shell Dlg 2';fill:#ffffff;fill-opacity:1;stroke:#f7f7f7;stroke-width:0.173605;stroke-linecap:square;stroke-linejoin:bevel;stroke-opacity:1" />
  <path
     d="m 26.403415,35.544258 -0.577699,-0.570795 0.01336,-1.475424 -0.687714,0.143867 0.983022,-0.940039 -0.201548,-1.950902 1.860261,-0.195759 0.539836,-0.847172 0.860981,0.957856 1.239355,0.249207 0.131175,0.78593 0.745618,-0.421581 0.369469,0.92267 1.913264,0.398641 -0.107122,0.594625 2.131293,1.990319 3.236358,-1.537113 1.545799,0.163911 0.66344,-0.534495 0.74829,0.789269 2.355781,-0.837817 0.135851,1.154506 0.68504,-0.261903 0.45165,1.170318 0.834253,-0.237627 1.054288,0.828688 0.07238,0.611996 -2.019048,0.379043 0.960307,0.905076 -0.416906,0.884141 0.49619,0.03786 0.780806,1.983637 -0.499754,1.246485 -0.65854,0.116919 -0.0082,1.205731 0.962086,0.447415 -0.04321,0.554539 -2.01593,0.717107 -1.792113,-1.530652 -1.690335,0.791049 -1.854247,-0.620679 -2.194541,7.48847 -0.857861,-0.148986 -0.528927,-2.588509 -0.863429,0.05479 -0.262347,0.795506 -0.941154,-0.636493 -0.809537,0.61979 -1.189692,-0.764324 -0.812875,2.624806 -1.351155,0.633595 -1.147155,-0.825349 -3.345484,0.597745 -0.25344,-0.720448 -1.263186,-0.244536 -6.7e-4,-1.558713 1.718619,-0.950731 -0.09487,-2.972005 -0.694175,-0.635381 -1.380996,0.05879 -0.401315,-0.911091 -1.481016,-0.166131 -0.288982,-1.909927 -1.558338,-2.493413 1.74835,-0.283502 1.348592,1.054955 3.446816,-1.699911 -0.211347,-1.220428 0.873674,-0.55075 -0.401316,-0.716666 m 20.878873,0.437615 0.006,-0.05835 -0.06503,-0.0015 0.0053,0.04276 0.05367,0.01714 m -0.172598,0.126497 0.04321,-0.05991 -0.08841,-0.08418 -0.0089,0.123824 0.05412,0.02027"
     fill-rule="evenodd"
     vector-effect="none"
     id="path58"
     style="font-style:normal;font-weight:400;font-size:34.375px;font-family:'MS Shell Dlg 2';fill:#ffffff;fill-opacity:1;stroke:#f7f7f7;stroke-width:0.173605;stroke-linecap:square;stroke-linejoin:bevel;stroke-opacity:1" />
  <path
     d="m 12.044538,11.430252 -1.440326,-3.1289687 -1.3957183,-1.003801 1.6622743,-1.562102 -0.482936,-1.24577 0.510106,-1.188425 4.526292,-0.251902 0.373454,-0.634288 0.65353,0.872494 1.161075,-0.106297 1.635105,2.041876 -0.562888,1.869146 0.818932,-0.05356 0.520041,1.090678 1.143013,-0.630523 -0.07795,0.774302 0.766398,0.314772 1.189625,2.2358527 -0.296865,0.708071 0.613553,-0.388154 0.295753,0.433585 -0.233841,1.15651 2.207458,0.04145 0.248761,-0.444676 0.758761,0.401827 0.80686,-0.739404 0.525587,0.406793 0.342964,-0.682881 0.303325,0.925251 0.889265,0.177921 -0.852072,1.034334 0.253662,0.703883 0.924452,-0.106097 0.138744,1.983171 -1.371867,0.732479 0.678141,0.909574 -0.853409,0.111664 -0.134292,1.707284 -1.480991,1.91892 0.24119,1.133683 -0.947167,1.244702 0.655421,1.47988 -1.61506,0.614444 -0.73181,-1.756034 -1.197044,0.58037 0.299986,-1.148937 -0.614222,-0.355217 -0.338291,1.183458 -1.525911,-0.342077 -0.783256,-1.123325 -1.309019,-0.135851 -1.330266,-2.296563 -0.151127,1.47723 -1.360397,-0.323703 -0.755084,0.866658 -2.710283,-1.044556 -0.951019,-1.553995 -1.184081,0.678918 -0.8453243,-0.358 -0.166806,-1.591075 -1.564485,-1.567848 0.113447,-0.989123 2.4859733,-0.541064 -0.200925,-2.607949 1.410194,-0.946478 0.311387,-0.962532"
     fill-rule="evenodd"
     vector-effect="none"
     id="path60"
     style="font-style:normal;font-weight:400;font-size:34.375px;font-family:'MS Shell Dlg 2';fill:#ffffff;fill-opacity:1;stroke:#f7f7f7;stroke-width:0.173605;stroke-linecap:square;stroke-linejoin:bevel;stroke-opacity:1" />
  <path
     d="m 66.593314,17.644384 -0.59664,-2.177349 1.18079,-1.760643 0.35009,0.864164 2.62637,1.229892 -0.30867,2.687678 1.20662,0.154313 0.82713,1.869124 -2.25667,0.372875 0.2864,0.911178 -0.86855,0.455366 -0.54118,-1.312783 0.62891,0.160059 -0.0917,-0.605336 -0.93671,-0.870311 -1.02555,0.194377 -0.4806,-2.172604"
     fill-rule="evenodd"
     vector-effect="none"
     id="path62"
     style="font-style:normal;font-weight:400;font-size:34.375px;font-family:'MS Shell Dlg 2';fill:#ffffff;fill-opacity:1;stroke:#f7f7f7;stroke-width:0.173605;stroke-linecap:square;stroke-linejoin:bevel;stroke-opacity:1" />
  <metadata
     id="metadata88">
    <rdf:RDF>
      <rdf:Description
         dc:format="image/svg+xml"
         dc:title=""
         dc:date="2021-12-01T12:38:09"
         dc:identifier=""
         dc:description="">
        <dc:creator>
          <rdf:Bag>
            <rdf:li>Pierre-Stephane LEBRE</rdf:li>
          </rdf:Bag>
        </dc:creator>
        <dc:publisher>
          <rdf:Bag>
            <rdf:li>QGIS 3.22.1-Białowieża</rdf:li>
          </rdf:Bag>
        </dc:publisher>
        <dc:subject>
          <rdf:Bag />
        </dc:subject>
      </rdf:Description>
      <cc:Work
         rdf:about="">
        <dc:format>image/svg+xml</dc:format>
        <dc:title></dc:title>
        <dc:date>2021-12-01T12:38:09</dc:date>
        <dc:identifier />
        <dc:description />
        <dc:creator>
          <cc:Agent>
            <dc:title>Pierre-Stephane LEBRE</dc:title>
          </cc:Agent>
        </dc:creator>
        <dc:publisher>
          <cc:Agent>
            <dc:title>QGIS 3.22.1-Białowieża</dc:title>
          </cc:Agent>
        </dc:publisher>
        <dc:type
           rdf:resource="http://purl.org/dc/dcmitype/StillImage" />
      </cc:Work>
    </rdf:RDF>
  </metadata>
</svg>
