<?xml version='1.0' encoding='UTF-8' standalone='no'?>
<svg version="1.2" xmlns:cc="http://creativecommons.org/ns#" height="209.973mm" xmlns:xlink="http://www.w3.org/1999/xlink" baseProfile="tiny" viewBox="0 0 3507 2480" width="296.926mm" xmlns="http://www.w3.org/2000/svg">
 <defs/>
 <g fill="none" stroke-linecap="square" stroke-width="1" stroke-linejoin="bevel" stroke="black" fill-rule="evenodd">
  <g font-family="MS Shell Dlg 2" fill="none" stroke-opacity="1" font-style="normal" font-weight="400" stroke-linecap="square" stroke-width="1" stroke-linejoin="bevel" stroke="#000000" transform="matrix(1,0,0,1,0,0)" font-size="34.375"/>
  <g font-family="MS Shell Dlg 2" fill="none" stroke-opacity="1" font-style="normal" font-weight="400" stroke-linecap="square" stroke-width="1" stroke-linejoin="bevel" stroke="#000000" transform="matrix(1,0,0,1,0,0)" font-size="34.375"/>
  <g font-family="MS Shell Dlg 2" fill="none" stroke-opacity="1" font-style="normal" font-weight="400" stroke-linecap="square" stroke-width="1" stroke-linejoin="bevel" stroke="#000000" transform="matrix(11.8081,0,0,11.8081,0,0)" font-size="34.375"/>
  <g font-family="MS Shell Dlg 2" fill="none" stroke-opacity="1" font-style="normal" font-weight="400" stroke-linecap="square" stroke-width="1" stroke-linejoin="bevel" stroke="#000000" transform="matrix(0.999751,0,0,0.999751,0,0)" font-size="34.375"/>
  <g font-family="MS Shell Dlg 2" fill="#ffffff" font-style="normal" font-weight="400" fill-opacity="1" stroke="none" transform="matrix(0.999751,0,0,0.999751,0,0)" font-size="34.375">
   <path d="M-2,-2 L3510,-2 L3510,2483 L-2,2483 L-2,-2" fill-rule="evenodd" vector-effect="none"/>
  </g>
  <g font-family="MS Shell Dlg 2" fill="none" stroke-opacity="1" font-style="normal" font-weight="400" stroke-linecap="square" stroke-width="1" stroke-linejoin="bevel" stroke="#000000" transform="matrix(0.999751,0,0,0.999751,0,0)" font-size="34.375"/>
  <g font-family="MS Shell Dlg 2" fill="none" stroke-opacity="1" font-style="normal" font-weight="400" stroke-linecap="square" stroke-width="1" stroke-linejoin="bevel" stroke="#000000" transform="matrix(11.8081,0,0,11.8081,0,0)" font-size="34.375"/>
  <g font-family="MS Shell Dlg 2" fill="none" stroke-opacity="1" font-style="normal" font-weight="400" stroke-linecap="square" stroke-width="1" stroke-linejoin="bevel" stroke="#000000" transform="matrix(11.8081,0,0,11.8081,0,0)" font-size="34.375"/>
  <g font-family="MS Shell Dlg 2" fill="none" stroke-opacity="1" font-style="normal" font-weight="400" stroke-linecap="square" stroke-width="1" stroke-linejoin="bevel" stroke="#000000" transform="matrix(11.8081,0,0,11.8081,0,0)" font-size="34.375"/>
  <g font-family="MS Shell Dlg 2" fill="none" stroke-opacity="1" font-style="normal" font-weight="400" stroke-linecap="square" stroke-width="1" stroke-linejoin="bevel" stroke="#000000" transform="matrix(11.8081,0,0,11.8081,0,0)" font-size="34.375"/>
  <g font-family="MS Shell Dlg 2" fill="none" stroke-opacity="1" font-style="normal" font-weight="400" stroke-linecap="square" stroke-width="1" stroke-linejoin="bevel" stroke="#000000" transform="matrix(11.8081,0,0,11.8081,0,0)" font-size="34.375"/>
  <g font-family="MS Shell Dlg 2" fill="#ffffff" font-style="normal" font-weight="400" fill-opacity="1" stroke="none" transform="matrix(11.8081,0,0,11.8081,0,0)" font-size="34.375">
   <path d="M0,0 L297,0 L297,210 L0,210 L0,0" fill-rule="evenodd" vector-effect="none"/>
  </g>
  <g font-family="MS Shell Dlg 2" fill="none" stroke-opacity="1" font-style="normal" font-weight="400" stroke-linecap="square" stroke-width="1" stroke-linejoin="bevel" stroke="#000000" transform="matrix(11.8081,0,0,11.8081,0,0)" font-size="34.375"/>
  <g font-family="MS Shell Dlg 2" fill="none" stroke-opacity="1" font-style="normal" font-weight="400" stroke-linecap="square" stroke-width="1" stroke-linejoin="bevel" stroke="#000000" transform="matrix(11.8081,0,0,11.8081,0,0)" font-size="34.375"/>
  <g font-family="MS Shell Dlg 2" fill="#000000" font-style="normal" font-weight="400" fill-opacity="0" stroke="none" transform="matrix(0.999751,0,0,0.999751,0,0)" font-size="34.375">
   <rect x="0" y="0" height="2480" width="3508"/>
  </g>
  <g font-family="MS Shell Dlg 2" fill="none" stroke-opacity="1" font-style="normal" font-weight="400" stroke-linecap="square" stroke-width="1" stroke-linejoin="bevel" stroke="#000000" transform="matrix(0.999751,0,0,0.999751,0,0)" font-size="34.375"/>
  <g font-family="MS Shell Dlg 2" fill="#969696" stroke-opacity="1" font-style="normal" font-weight="400" stroke-linecap="square" fill-opacity="1" stroke-width="7.79528" stroke-linejoin="bevel" stroke="#f7f7f7" transform="matrix(0.999751,0,0,0.999751,0,0)" font-size="34.375">
   <path d="M1227.69,961.646 L1291.63,835.013 L1276.3,816.73 L1314.62,811.716 L1284.17,770.874 L1345.77,737.984 L1339.54,648.935 L1298.03,653.699 L1286.39,619.911 L1330.1,591.448 L1326.71,535.884 L1488.94,526.497 L1476.54,488.256 L1507.23,464.985 L1644.93,483.42 L1643.97,526.667 L1697.41,548.887 L1676.38,582.301 L1721.63,567.331 L1785.53,666.266 L1735.81,709.717 L1763.54,724.1 L1772.15,799.159 L1811.66,774.311 L1877.35,835.076 L1912.05,800.307 L1910.12,829.136 L1967.32,856.895 L1964.93,901.861 L2010.5,865.32 L2062.49,878.893 L2078.85,843.786 L2114.13,865.845 L2122.6,946.506 L2044.74,1010 L2093.33,1023.5 L2090.53,1080.34 L2133.95,1081.61 L2119.62,1154.46 L2151.2,1166.34 L2102.29,1328.64 L2068.3,1388.95 L2000.68,1424.32 L2024.9,1458.71 L1983.43,1492.07 L1877.41,1529.7 L1843.81,1494.26 L1814.02,1518.26 L1744.61,1510.9 L1599.29,1579.92 L1503.59,1490.55 L1508.4,1463.85 L1476.87,1471.99 L1407.42,1436.12 L1413.35,1408.45 L1375.34,1424.99 L1366.53,1388.16 L1307.33,1374.48 L1273.02,1334.06 L1277.57,1269.58 L1214.87,1243.82 L1225.29,1137.74 L1200.66,1157.24 L1172.07,1086.35 L1207.98,1049.94 L1203.77,979.555 L1227.69,961.646" fill-rule="evenodd" vector-effect="none"/>
   <path d="M1209.21,1344.15 L1253.54,1338.03 L1258.01,1355.83 L1232.75,1376.35 L1209.21,1344.15" fill-rule="evenodd" vector-effect="none"/>
   <path d="M2676.83,964.442 L2741.13,928.649 L2784.01,961.093 L2801.35,936.816 L2840.44,955.225 L2854.43,901.415 L2900.35,907.284 L2905.89,863.592 L2980.48,901.834 L3001.3,876.461 L3056.65,880.727 L3104.01,947.361 L3075.77,939.996 L3102.32,1019.12 L3063.7,1081.34 L3151.87,1056.65 L3186.95,1083.35 L3109.62,1143.15 L3120.23,1186.66 L2960.69,1353.12 L2957.6,1396.83 L2781.99,1514.12 L2805.26,1551.11 L2800.12,1666.98 L2587.71,1857.94 L2592.52,1893.26 L2534.18,1841.94 L2571.31,1798.3 L2545.52,1760.54 L2632.98,1674.75 L2563.76,1605.63 L2508.88,1599.77 L2486.98,1521.3 L2458.88,1507.5 L2470.83,1479.97 L2433.43,1474.25 L2432.78,1443.16 L2382.75,1456.26 L2356.32,1413.94 L2312.77,1440.26 L2306.51,1407.6 L2338.86,1406.54 L2327.19,1371.2 L2365.1,1320.22 L2273.66,1200.86 L2405.93,1151.17 L2424.34,1116.45 L2460.01,1133.92 L2548.08,1095.71 L2551.16,1061.77 L2582.81,1067.31 L2606.72,1024.62 L2633.04,1043.05 L2676.83,964.442" fill-rule="evenodd" vector-effect="none"/>
   <path d="M2142.92,1186.3 L2154.06,1164.54 L2192.59,1215.91 L2270.12,1196.01 L2365.1,1320.22 L2327.19,1371.2 L2338.86,1406.54 L2306.51,1407.6 L2312.77,1440.26 L2356.32,1413.94 L2382.75,1456.26 L2432.78,1443.16 L2433.43,1474.25 L2470.83,1479.97 L2458.88,1507.5 L2486.98,1521.3 L2508.88,1599.77 L2563.76,1605.63 L2635.5,1681.13 L2545.52,1760.54 L2571.31,1798.3 L2534.18,1841.94 L2608.04,1909.9 L2552.05,2030.79 L2424.31,2185.29 L2325.74,2193.03 L2316.81,2145.47 L2266.41,2112.61 L2198.84,2188.69 L2152.75,2194.39 L2146.74,2136.99 L2126.6,2145.67 L2116.29,2113.72 L2104.48,2151.08 L2081.96,2080.85 L2029.03,2052.07 L2044.36,2002.32 L2108.34,1987.21 L2110.28,1962.31 L2067.08,1942.22 L2067.45,1888.08 L2097.02,1882.83 L2119.5,1827.12 L2084.4,1737.79 L2062.12,1736.09 L2080.84,1696.39 L2037.72,1655.75 L2127.96,1625.48 L2084.12,1576.27 L2038.39,1583.1 L2020.05,1532.16 L1989.29,1543.92 L1983.1,1492.51 L2024.9,1458.71 L2000.68,1424.32 L2068.3,1388.95 L2102.29,1328.64 L2142.92,1186.3" fill-rule="evenodd" vector-effect="none"/>
   <path d="M2115.34,1621.35 L2112.91,1620.44 L2113.31,1614.88 L2117.28,1618.66 L2115.34,1621.35" fill-rule="evenodd" vector-effect="none"/>
   <path d="M2123.09,1615.67 L2120.68,1614.9 L2120.44,1612.98 L2123.36,1613.05 L2123.09,1615.67" fill-rule="evenodd" vector-effect="none"/>
   <path d="M383.119,1131.94 L410.924,1058.76 L352.973,954.859 L523.894,912.165 L567.399,981.987 L685.678,1028.6 L723.002,989.975 L784.087,1004.51 L790.873,938.179 L850.605,1041.3 L909.383,1047.4 L944.553,1097.84 L1006.65,1115.1 L1028.13,1060.06 L1047.39,1065.57 L1042.37,1127.6 L1096.12,1101.54 L1128.98,1180.39 L1223.57,1135.86 L1214.87,1243.82 L1250.17,1240.53 L1286.4,1290.78 L1264.41,1341.91 L1166.53,1377.34 L1173.5,1468.39 L1130.44,1503.8 L1160.24,1504.14 L1164.92,1587.12 L1202.22,1620.27 L1164.37,1652.93 L1175.05,1706.32 L999.226,1786.56 L958.535,1736.69 L906.881,1751.25 L859.52,1726.88 L863.429,1765.52 L829.24,1767.32 L837.905,1799.87 L783.09,1837.28 L757.717,1827.52 L752.088,1777.88 L692.678,1805.68 L660.857,1774.17 L595.844,1811.62 L569.483,1798.85 L481.502,1716.59 L507.303,1464.53 L469.756,1426.61 L445.291,1236.05 L373.804,1175.7 L383.119,1131.94" fill-rule="evenodd" vector-effect="none"/>
   <path d="M2379.42,558.603 L2407.58,489.298 L2418.14,531.28 L2475.95,461.405 L2535.05,439.621 L2590.92,529.677 L2709.57,496.663 L2771.17,567.055 L2854.37,506.156 L3004.22,627.979 L2963.53,716.628 L3014.48,864.973 L2988.76,902.546 L2905.89,863.592 L2900.35,907.284 L2854.43,901.415 L2840.44,955.225 L2801.35,936.816 L2784.01,961.093 L2741.13,928.649 L2691.81,945.927 L2633.04,1043.05 L2606.72,1024.62 L2582.81,1067.31 L2551.16,1061.77 L2548.08,1095.71 L2460.01,1133.92 L2424.34,1116.45 L2405.93,1151.17 L2298.26,1201.55 L2192.38,1215.82 L2119.62,1154.46 L2134.08,1081.87 L2090.53,1080.34 L2093.33,1023.5 L2044.74,1010 L2122.6,946.506 L2114.13,865.845 L2078.68,843.83 L2055.62,881.101 L2044.04,858.436 L2071.86,800.45 L2147.03,801.34 L2171.05,766.617 L2191.84,801.064 L2253.69,785.924 L2250.26,651.339 L2283.95,651.277 L2295.14,611.726 L2340.21,617.453 L2351.57,565.166 L2379.42,558.603" fill-rule="evenodd" vector-effect="none"/>
   <path d="M1185.58,1596.02 L1159.64,1570.39 L1160.24,1504.14 L1129.36,1510.6 L1173.5,1468.39 L1164.45,1380.79 L1247.98,1372 L1272.22,1333.96 L1310.88,1376.97 L1366.53,1388.16 L1372.42,1423.45 L1405.9,1404.52 L1422.49,1445.95 L1508.4,1463.85 L1503.59,1490.55 L1599.29,1579.92 L1744.61,1510.9 L1814.02,1518.26 L1843.81,1494.26 L1877.41,1529.7 L1983.19,1492.08 L1989.29,1543.92 L2020.05,1532.16 L2040.33,1584.71 L2077.79,1574.04 L2125.13,1611.25 L2128.38,1638.73 L2037.72,1655.75 L2080.84,1696.39 L2062.12,1736.09 L2084.4,1737.79 L2119.46,1826.86 L2097.02,1882.83 L2067.45,1888.08 L2067.08,1942.22 L2110.28,1962.31 L2108.34,1987.21 L2017.82,2019.41 L1937.35,1950.68 L1861.45,1986.2 L1778.19,1958.33 L1679.65,2294.58 L1641.13,2287.89 L1617.38,2171.66 L1578.61,2174.12 L1566.83,2209.84 L1524.57,2181.26 L1488.22,2209.09 L1434.8,2174.77 L1398.3,2292.63 L1337.63,2321.08 L1286.12,2284.02 L1135.9,2310.86 L1124.52,2278.51 L1067.8,2267.53 L1067.77,2197.54 L1144.94,2154.85 L1140.68,2021.4 L1109.51,1992.87 L1047.5,1995.51 L1029.48,1954.6 L962.979,1947.14 L950.003,1861.38 L880.03,1749.42 L958.535,1736.69 L1019.09,1784.06 L1173.86,1707.73 L1164.37,1652.93 L1203.6,1628.2 L1185.58,1596.02 M2123.09,1615.67 L2123.36,1613.05 L2120.44,1612.98 L2120.68,1614.9 L2123.09,1615.67 M2115.34,1621.35 L2117.28,1618.66 L2113.31,1614.88 L2112.91,1620.44 L2115.34,1621.35" fill-rule="evenodd" vector-effect="none"/>
   <path d="M540.833,513.245 L476.159,372.747 L413.488,327.674 L488.128,257.532 L466.443,201.594 L489.348,148.231 L692.589,136.92 L709.358,108.439 L738.703,147.616 L790.838,142.843 L864.258,234.528 L838.983,318.457 L875.755,316.052 L899.106,365.026 L950.43,336.714 L946.93,371.482 L981.343,385.616 L1034.76,486.011 L1021.43,517.805 L1048.98,500.376 L1062.26,519.845 L1051.76,571.775 L1150.88,573.636 L1162.05,553.669 L1196.12,571.712 L1232.35,538.511 L1255.95,556.777 L1271.35,526.114 L1284.97,567.66 L1324.9,575.649 L1286.64,622.093 L1298.03,653.699 L1339.54,648.935 L1345.77,737.984 L1284.17,770.874 L1314.62,811.716 L1276.3,816.73 L1270.27,893.391 L1203.77,979.555 L1214.6,1030.46 L1172.07,1086.35 L1201.5,1152.8 L1128.98,1180.39 L1096.12,1101.54 L1042.37,1127.6 L1055.84,1076.01 L1028.26,1060.06 L1013.07,1113.2 L944.553,1097.84 L909.383,1047.4 L850.605,1041.3 L790.873,938.179 L784.087,1004.51 L723.002,989.975 L689.097,1028.89 L567.399,981.987 L524.696,912.209 L471.528,942.694 L433.571,926.619 L426.081,855.176 L355.832,784.776 L360.926,740.362 L472.552,716.067 L463.53,598.964 L526.851,556.465 L540.833,513.245" fill-rule="evenodd" vector-effect="none"/>
   <path d="M2990.2,792.274 L2963.41,694.506 L3016.43,615.449 L3032.15,654.252 L3150.08,709.477 L3136.22,830.16 L3190.4,837.089 L3227.54,921.017 L3126.21,937.76 L3139.07,978.674 L3100.07,999.121 L3075.77,940.174 L3104.01,947.361 L3099.89,920.18 L3057.83,881.101 L3011.78,889.829 L2990.2,792.274" fill-rule="evenodd" vector-effect="none"/>
  </g>
  <g font-family="MS Shell Dlg 2" fill="none" stroke-opacity="1" font-style="normal" font-weight="400" stroke-linecap="square" stroke-width="1" stroke-linejoin="bevel" stroke="#000000" transform="matrix(0.999751,0,0,0.999751,0,0)" font-size="34.375"/>
  <g font-family="MS Shell Dlg 2" fill="none" stroke-opacity="1" font-style="normal" font-weight="400" stroke-linecap="square" stroke-width="1" stroke-linejoin="bevel" stroke="#000000" transform="matrix(11.8081,0,0,11.8081,0,0)" font-size="34.375"/>
  <g font-family="MS Shell Dlg 2" fill="none" stroke-opacity="1" font-style="normal" font-weight="400" stroke-linecap="square" stroke-width="1" stroke-linejoin="bevel" stroke="#000000" transform="matrix(11.8081,0,0,11.8081,0,0)" font-size="34.375"/>
  <g font-family="MS Shell Dlg 2" fill="none" stroke-opacity="1" font-style="normal" font-weight="400" stroke-linecap="square" stroke-width="1" stroke-linejoin="bevel" stroke="#000000" transform="matrix(11.8081,0,0,11.8081,0,0)" font-size="34.375"/>
  <g font-family="MS Shell Dlg 2" fill="none" stroke-opacity="1" font-style="normal" font-weight="400" stroke-linecap="square" stroke-width="1" stroke-linejoin="bevel" stroke="#000000" transform="matrix(1,0,0,1,0,0)" font-size="34.375"/>
  <g font-family="MS Shell Dlg 2" fill="none" stroke-opacity="1" font-style="normal" font-weight="400" stroke-linecap="square" stroke-width="1" stroke-linejoin="bevel" stroke="#000000" transform="matrix(11.8081,0,0,11.8081,0,0)" font-size="34.375"/>
  <g font-family="MS Shell Dlg 2" fill="none" stroke-opacity="1" font-style="normal" font-weight="400" stroke-linecap="square" stroke-width="1" stroke-linejoin="bevel" stroke="#000000" transform="matrix(11.8081,0,0,11.8081,0,0)" font-size="34.375"/>
  <g font-family="MS Shell Dlg 2" fill="none" stroke-opacity="1" font-style="normal" font-weight="400" stroke-linecap="square" stroke-width="1" stroke-linejoin="bevel" stroke="#000000" transform="matrix(11.8081,0,0,11.8081,0,0)" font-size="34.375"/>
  <g font-family="MS Shell Dlg 2" fill="none" stroke-opacity="1" font-style="normal" font-weight="400" stroke-linecap="square" stroke-width="1" stroke-linejoin="bevel" stroke="#000000" transform="matrix(11.8081,0,0,11.8081,0,0)" font-size="34.375"/>
  <g font-family="MS Shell Dlg 2" fill="none" stroke-opacity="1" font-style="normal" font-weight="400" stroke-linecap="square" stroke-width="1" stroke-linejoin="bevel" stroke="#000000" transform="matrix(1,0,0,1,0,0)" font-size="34.375"/>
 </g>
 <metadata>
  <rdf:RDF xmlns:rdfs="http://www.w3.org/2000/01/rdf-schema#" xmlns:rdf="http://www.w3.org/1999/02/22-rdf-syntax-ns#" xmlns:dc="http://purl.org/dc/elements/1.1/">
   <rdf:Description dc:format="image/svg+xml" dc:title="" dc:date="2021-12-01T12:38:09" dc:identifier="" dc:description="">
    <dc:creator>
     <rdf:Bag>
      <rdf:li>Pierre-Stephane LEBRE</rdf:li>
     </rdf:Bag>
    </dc:creator>
    <dc:publisher>
     <rdf:Bag>
      <rdf:li>QGIS 3.22.1-Białowieża</rdf:li>
     </rdf:Bag>
    </dc:publisher>
    <dc:subject>
     <rdf:Bag/>
    </dc:subject>
   </rdf:Description>
   <cc:Work rdf:about="">
    <dc:format>image/svg+xml</dc:format>
    <dc:title></dc:title>
    <dc:date>2021-12-01T12:38:09</dc:date>
    <dc:identifier></dc:identifier>
    <dc:description></dc:description>
    <dc:creator>
     <cc:Agent>
      <dc:title>Pierre-Stephane LEBRE</dc:title>
     </cc:Agent>
    </dc:creator>
    <dc:publisher>
     <cc:Agent>
      <dc:title>QGIS 3.22.1-Białowieża</dc:title>
     </cc:Agent>
    </dc:publisher>
   </cc:Work>
  </rdf:RDF>
 </metadata>
</svg>
